<?xml version="1.0" encoding="UTF-8"?>
<svg version="1.1" xmlns="http://www.w3.org/2000/svg" width="1926" height="1080">
<path d="M0 0 C1.17175781 0.3403125 2.34351563 0.680625 3.55078125 1.03125 C21.34976244 6.78917178 38.16034671 18.81630006 46.98046875 35.65234375 C49.59122462 40.93983364 51.85759694 45.96244492 53.09033203 51.73803711 C53.349207 52.93945595 53.349207 52.93945595 53.61331177 54.16514587 C53.74091888 54.77064774 53.868526 55.3761496 54 56 C47.13202572 56.20316111 40.26482795 56.34306849 33.39453125 56.43945312 C31.05862474 56.47963798 28.72291888 56.53419787 26.38769531 56.60351562 C23.0261894 56.70078473 19.66734577 56.74597681 16.3046875 56.78125 C15.26384003 56.82254028 14.22299255 56.86383057 13.15060425 56.90637207 C6.00917001 56.9107728 6.00917001 56.9107728 3.0450592 54.235672 C1.54086691 52.21954878 0.27892438 50.16231951 -1 48 C-3.12434264 46.00783418 -3.12434264 46.00783418 -5.3125 44.6875 C-5.98925781 44.23761719 -6.66601562 43.78773438 -7.36328125 43.32421875 C-14.44767687 39.76627784 -20.97683134 38.46648753 -28.875 38.5625 C-29.75196533 38.57007324 -30.62893066 38.57764648 -31.5324707 38.58544922 C-43.08640223 38.87871251 -52.41295152 42.95744545 -60.9375 50.77734375 C-72.30564236 62.75799378 -73.58920807 77.59395661 -73.30859375 93.2734375 C-72.80978872 105.91949042 -68.66081689 117.04129327 -59.81640625 126.28125 C-49.08517504 135.72614315 -34.99107832 138.77728213 -21 138 C-10.3754987 136.93754987 -0.23622161 133.13650271 7 125 C10.70209067 119.86996007 13.64711499 114.88221253 16 109 C-1.82 109 -19.64 109 -38 109 C-38 98.11 -38 87.22 -38 76 C-6.65 76 24.7 76 57 76 C57 130.63951735 57 130.63951735 35 154 C16.47320028 171.58062049 -8.14279716 178.81804514 -33.23828125 178.21875 C-58.05719762 176.77549007 -80.40430126 167.7059172 -97.83984375 149.57421875 C-116.11116346 127.80062076 -120.57290073 101.74747476 -119 74 C-117.80021312 63.48149806 -114.64077278 53.49993486 -110 44 C-109.58234375 43.1028125 -109.1646875 42.205625 -108.734375 41.28125 C-99.57433881 22.96117761 -83.09596238 9.02819003 -63.83837891 2.23779297 C-43.65969505 -4.39527796 -20.56383122 -6.09298703 0 0 Z M-94.84765625 26.4140625 C-103.33348602 36.60937884 -109.24252864 47.27868951 -113 60 C-113.33902344 61.14339844 -113.67804688 62.28679687 -114.02734375 63.46484375 C-119.95885377 87.76490091 -116.27552174 114.4501729 -103.91015625 136.11328125 C-91.40872265 155.00604082 -73.18127472 167.83734074 -51 173 C-25.9099913 177.73651729 -0.77470492 174.85159346 21 161 C24.84598604 158.1829401 28.44888769 155.17821683 32 152 C32.62261719 151.47148438 33.24523438 150.94296875 33.88671875 150.3984375 C37.95985192 146.69558917 41.03223736 142.33334936 44.125 137.8125 C44.53306885 137.2251709 44.9411377 136.6378418 45.36157227 136.03271484 C58.08412052 116.8165533 54 104.67773229 54 79 C24.63 79 -4.74 79 -35 79 C-35 87.91 -35 96.82 -35 106 C-17.18 106.33 0.64 106.66 19 107 C16.98279073 117.08604633 11.81538198 125.29628874 4 132 C-10.87284136 141.39977474 -25.374358 142.70908584 -42.421875 138.96484375 C-53.25455117 136.04380552 -62.50913698 129.53188609 -68.875 120.1875 C-74.61545419 110.05010217 -76.1914276 99.29661774 -76.25 87.875 C-76.270625 86.89273438 -76.29125 85.91046875 -76.3125 84.8984375 C-76.38176265 71.7385331 -72.02137429 60.60379535 -64.8125 49.6875 C-52.67026924 38.08492394 -40.01750017 35.57536469 -23.90234375 35.7890625 C-14.63252349 36.07213712 -6.23268624 39.06219791 1 45 C1.84704552 46.35551672 2.68882313 47.714332 3.52685547 49.07543945 C5.31304123 51.47920064 6.32271513 52.78185422 9.19604492 53.70732117 C11.82842808 53.92472132 14.35353567 53.90102804 16.9921875 53.78125 C18.41109787 53.76427063 18.41109787 53.76427063 19.8586731 53.74694824 C22.86621695 53.70232805 25.86890949 53.60199923 28.875 53.5 C30.91920174 53.45985413 32.96347858 53.42335529 35.0078125 53.390625 C40.00706422 53.30264007 45.00271112 53.16469706 50 53 C47.20527919 37.20397329 36.20934609 23.44278311 23.484375 14.32421875 C-11.99856665 -9.93838753 -65.29396167 -4.95578091 -94.84765625 26.4140625 Z " fill="#FFFFFF" transform="translate(1203,456)"/>
<path d="M0 0 C14.85 0 29.7 0 45 0 C54.68221111 10.37877306 54.68221111 10.37877306 56.359375 15.4453125 C59.07779055 22.6137957 63.06014673 28.43233106 67.4375 34.6875 C68.97435529 36.95679837 70.49312492 39.23798504 72.01171875 41.51953125 C72.40576401 42.1089299 72.79980927 42.69832855 73.20579529 43.30558777 C79.36627403 52.52386718 85.42956877 61.80677326 91.50561523 71.08081055 C98.94597028 82.42740191 106.47275921 93.70913881 114 105 C114.33 70.35 114.66 35.7 115 0 C129.52 0 144.04 0 159 0 C159 58.74 159 117.48 159 178 C144.48 178 129.96 178 115 178 C100.52699106 161.03164469 100.52699106 161.03164469 97.3671875 153.90234375 C96.62606971 152.35795904 95.87961306 150.81612536 95.12792969 149.27685547 C94.77291382 148.54601746 94.41789795 147.81517944 94.05212402 147.06219482 C91.46610032 141.99351035 88.14671526 137.37328318 84.9375 132.6875 C83.59672296 130.64118361 82.26108118 128.59149636 80.9296875 126.5390625 C74.18051244 116.18742809 67.36473544 105.87929451 60.5625 95.5625 C59.90555145 94.56600433 59.24860291 93.56950867 58.57174683 92.54281616 C56.69514361 89.69639611 54.81834816 86.85010298 52.94140625 84.00390625 C52.37136871 83.13949921 51.80133118 82.27509216 51.21401978 81.38449097 C50.68779022 80.58673248 50.16156067 79.788974 49.61938477 78.96704102 C49.15991959 78.2704689 48.70045441 77.57389679 48.22706604 76.85621643 C47.15527756 75.23489261 46.07809254 73.61713881 45 72 C44.67 106.98 44.34 141.96 44 178 C29.48 178 14.96 178 0 178 C0 119.26 0 60.52 0 0 Z M3 3 C3 59.76 3 116.52 3 175 C15.54 175 28.08 175 41 175 C41.33 139.69 41.66 104.38 42 68 C43.32 68 44.64 68 46 68 C47.72548994 70.04083744 49.11140935 71.95908184 50.53515625 74.19921875 C50.96554199 74.85189728 51.39592773 75.50457581 51.83935547 76.17703247 C53.26033443 78.33881894 54.66119891 80.51291663 56.0625 82.6875 C57.05853417 84.21071751 58.05586543 85.73308757 59.05444336 87.25463867 C61.58269496 91.11305904 64.09564663 94.98118763 66.60498047 98.85192871 C68.6117295 101.94194994 70.63265878 105.02255426 72.65625 108.1015625 C75.2528323 112.05440225 77.84611339 116.00934155 80.43348694 119.96821594 C87.14080905 130.22986465 93.87948465 140.47087485 100.62252808 150.70907593 C101.95479253 152.73223291 103.28660192 154.75568963 104.61795044 156.77944946 C106.48632398 159.61935969 108.35623216 162.45825323 110.2265625 165.296875 C110.79540665 166.1620726 111.36425079 167.0272702 111.95033264 167.91868591 C112.47026291 168.70703323 112.99019318 169.49538055 113.52587891 170.30761719 C113.98153229 170.99958191 114.43718567 171.69154663 114.90664673 172.40447998 C115.90528991 173.96648431 115.90528991 173.96648431 117 175 C129.87 175 142.74 175 156 175 C156 118.24 156 61.48 156 3 C143.46 3 130.92 3 118 3 C117.67 38.31 117.34 73.62 117 110 C116.01 110 115.02 110 114 110 C112.18774414 107.9453125 112.18774414 107.9453125 110.22265625 105.125 C109.51512207 104.114375 108.80758789 103.10375 108.07861328 102.0625 C105.14527633 97.7407031 102.26391381 93.39244378 99.4375 89 C98.12176462 86.96961719 96.80531056 84.93969998 95.48828125 82.91015625 C94.77365723 81.80816895 94.0590332 80.70618164 93.32275391 79.57080078 C90.82468 75.72560152 88.30963948 71.89163717 85.79296875 68.05859375 C85.33811096 67.36362289 84.88325317 66.66865204 84.41461182 65.95262146 C82.01577986 62.29241925 79.59634366 58.64873923 77.13818359 55.02807617 C72.299798 47.85593323 67.73879838 40.71022081 63.77624512 33.01054382 C61.91469481 29.42581425 59.94098631 25.90882047 57.95623779 22.3911438 C57.04392096 20.70320783 56.18465642 18.9852422 55.38751221 17.23995972 C52.08847328 10.05576131 49.77819615 8.60367971 43 3 C29.8 3 16.6 3 3 3 Z " fill="#FFFFFF" transform="translate(902,455)"/>
<path d="M0 0 C14.85 0 29.7 0 45 0 C54.68221111 10.37877306 54.68221111 10.37877306 56.359375 15.4453125 C59.07779055 22.6137957 63.06014673 28.43233106 67.4375 34.6875 C68.97435529 36.95679837 70.49312492 39.23798504 72.01171875 41.51953125 C72.40576401 42.1089299 72.79980927 42.69832855 73.20579529 43.30558777 C79.36627403 52.52386718 85.42956877 61.80677326 91.50561523 71.08081055 C98.94597028 82.42740191 106.47275921 93.70913881 114 105 C114.33 70.35 114.66 35.7 115 0 C129.52 0 144.04 0 159 0 C159 58.74 159 117.48 159 178 C144.48 178 129.96 178 115 178 C100.52699106 161.03164469 100.52699106 161.03164469 97.3671875 153.90234375 C96.62606971 152.35795904 95.87961306 150.81612536 95.12792969 149.27685547 C94.77291382 148.54601746 94.41789795 147.81517944 94.05212402 147.06219482 C91.46610032 141.99351035 88.14671526 137.37328318 84.9375 132.6875 C83.59672296 130.64118361 82.26108118 128.59149636 80.9296875 126.5390625 C74.18051244 116.18742809 67.36473544 105.87929451 60.5625 95.5625 C59.90555145 94.56600433 59.24860291 93.56950867 58.57174683 92.54281616 C56.69514361 89.69639611 54.81834816 86.85010298 52.94140625 84.00390625 C52.37136871 83.13949921 51.80133118 82.27509216 51.21401978 81.38449097 C50.68779022 80.58673248 50.16156067 79.788974 49.61938477 78.96704102 C49.15991959 78.2704689 48.70045441 77.57389679 48.22706604 76.85621643 C47.15527756 75.23489261 46.07809254 73.61713881 45 72 C44.67 106.98 44.34 141.96 44 178 C29.48 178 14.96 178 0 178 C0 119.26 0 60.52 0 0 Z M3 3 C3 59.76 3 116.52 3 175 C15.54 175 28.08 175 41 175 C41.33 139.69 41.66 104.38 42 68 C43.32 68 44.64 68 46 68 C47.72548994 70.04083744 49.11140935 71.95908184 50.53515625 74.19921875 C50.96554199 74.85189728 51.39592773 75.50457581 51.83935547 76.17703247 C53.26033443 78.33881894 54.66119891 80.51291663 56.0625 82.6875 C57.05853417 84.21071751 58.05586543 85.73308757 59.05444336 87.25463867 C61.58269496 91.11305904 64.09564663 94.98118763 66.60498047 98.85192871 C68.6117295 101.94194994 70.63265878 105.02255426 72.65625 108.1015625 C75.2528323 112.05440225 77.84611339 116.00934155 80.43348694 119.96821594 C87.14080905 130.22986465 93.87948465 140.47087485 100.62252808 150.70907593 C101.95479253 152.73223291 103.28660192 154.75568963 104.61795044 156.77944946 C106.48632398 159.61935969 108.35623216 162.45825323 110.2265625 165.296875 C110.79540665 166.1620726 111.36425079 167.0272702 111.95033264 167.91868591 C112.47026291 168.70703323 112.99019318 169.49538055 113.52587891 170.30761719 C113.98153229 170.99958191 114.43718567 171.69154663 114.90664673 172.40447998 C115.90528991 173.96648431 115.90528991 173.96648431 117 175 C129.87 175 142.74 175 156 175 C156 118.24 156 61.48 156 3 C143.46 3 130.92 3 118 3 C117.67 38.31 117.34 73.62 117 110 C116.01 110 115.02 110 114 110 C112.18774414 107.9453125 112.18774414 107.9453125 110.22265625 105.125 C109.51512207 104.114375 108.80758789 103.10375 108.07861328 102.0625 C105.14527633 97.7407031 102.26391381 93.39244378 99.4375 89 C98.12176462 86.96961719 96.80531056 84.93969998 95.48828125 82.91015625 C94.77365723 81.80816895 94.0590332 80.70618164 93.32275391 79.57080078 C90.82468 75.72560152 88.30963948 71.89163717 85.79296875 68.05859375 C85.33811096 67.36362289 84.88325317 66.66865204 84.41461182 65.95262146 C82.01577986 62.29241925 79.59634366 58.64873923 77.13818359 55.02807617 C72.299798 47.85593323 67.73879838 40.71022081 63.77624512 33.01054382 C61.91469481 29.42581425 59.94098631 25.90882047 57.95623779 22.3911438 C57.04392096 20.70320783 56.18465642 18.9852422 55.38751221 17.23995972 C52.08847328 10.05576131 49.77819615 8.60367971 43 3 C29.8 3 16.6 3 3 3 Z " fill="#FFFFFF" transform="translate(463,455)"/>
<path d="M0 0 C14.52 0 29.04 0 44 0 C44.33 24.42 44.66 48.84 45 74 C55.85980797 60.07847804 55.85980797 60.07847804 66.5 46 C71.88532497 38.77811033 77.36238442 31.63680678 82.91503906 24.54296875 C87.44967242 18.73905336 91.88542117 12.86605435 96.27026367 6.94824219 C98.08699927 4.50398757 99.84312714 2.15687286 102 0 C104.21463013 -0.24050903 104.21463013 -0.24050903 107.00048828 -0.22705078 C108.04141632 -0.22689972 109.08234436 -0.22674866 110.15481567 -0.22659302 C111.8454866 -0.21110916 111.8454866 -0.21110916 113.5703125 -0.1953125 C115.29735916 -0.19106766 115.29735916 -0.19106766 117.05929565 -0.18673706 C120.74796812 -0.17551408 124.43640053 -0.15040556 128.125 -0.125 C130.62109025 -0.11497294 133.1171843 -0.10584662 135.61328125 -0.09765625 C141.74226984 -0.07556784 147.87111777 -0.04206947 154 0 C151.82157117 3.31966367 149.64869563 6.56848582 147.1171875 9.62890625 C146.59495605 10.2645752 146.07272461 10.90024414 145.53466797 11.55517578 C144.98697754 12.21759277 144.43928711 12.88000977 143.875 13.5625 C139.80249658 18.5301093 135.77268933 23.51882913 131.875 28.625 C124.54266968 38.224331 117.07727909 47.70572809 109.4375 57.0625 C104.57788334 63.01628278 99.81131925 69.02611137 95.17578125 75.15625 C93.81456799 76.93535818 92.42057603 78.69037749 90.98046875 80.40625 C90.40941406 81.0971875 89.83835937 81.788125 89.25 82.5 C88.76015625 83.0671875 88.2703125 83.634375 87.765625 84.21875 C86.76053498 86.06330429 86.76053498 86.06330429 87.58984375 88.390625 C89.20507735 91.37947832 91.07714645 93.68903848 93.3125 96.25 C97.49261166 101.1220401 101.4424433 106.12870446 105.3125 111.25 C109.60735374 116.92080114 113.9866731 122.50148921 118.5 128 C123.50997232 134.10564491 128.33949557 140.32663646 133.10742188 146.62255859 C137.47917527 152.37340146 141.99784398 157.99235456 146.59960938 163.56054688 C156 174.98304457 156 174.98304457 156 178 C148.63618167 178.30575209 141.27401212 178.51499618 133.90527344 178.65917969 C131.40237277 178.71931137 128.89988993 178.80104625 126.3984375 178.90527344 C104.46731103 179.79578892 104.46731103 179.79578892 99.27099609 175.53686523 C96.601048 172.69098653 94.80258621 169.45265006 93 166 C92.01589615 164.66696182 91.00691653 163.3514662 89.9609375 162.06640625 C89.09587008 160.900723 88.23391156 159.73272648 87.375 158.5625 C86.35756661 157.19211716 85.33929183 155.82235871 84.3203125 154.453125 C83.78696289 153.73576172 83.25361328 153.01839844 82.70410156 152.27929688 C79.58109368 148.10216198 76.41419903 143.95846711 73.25 139.8125 C72.58371582 138.93924072 71.91743164 138.06598145 71.23095703 137.16625977 C69.8598244 135.36937161 68.4885663 133.57257919 67.1171875 131.77587891 C64.93004431 128.90827995 62.74587553 126.03843723 60.5625 123.16796875 C59.84030273 122.21881592 59.11810547 121.26966309 58.37402344 120.29174805 C56.99143931 118.47452397 55.60925683 116.65699422 54.22753906 114.83911133 C53.60073242 114.01564209 52.97392578 113.19217285 52.328125 112.34375 C51.50683105 111.26383789 51.50683105 111.26383789 50.66894531 110.16210938 C48.80849985 107.75191262 46.90202005 105.37752507 45 103 C44.67 127.75 44.34 152.5 44 178 C29.48 178 14.96 178 0 178 C0 119.26 0 60.52 0 0 Z M3 3 C3 59.76 3 116.52 3 175 C15.54 175 28.08 175 41 175 C41.33 149.92 41.66 124.84 42 99 C43.32 99 44.64 99 46 99 C48.02372222 101.121251 49.74536311 103.17100355 51.5 105.5 C52.28938965 106.51779541 52.28938965 106.51779541 53.09472656 107.55615234 C54.7447637 109.69314207 56.37488473 111.84401375 58 114 C58.48533203 114.64098633 58.97066406 115.28197266 59.47070312 115.94238281 C61.9094072 119.16771151 64.33189664 122.40473512 66.74609375 125.6484375 C70.3964757 130.54498822 74.10476006 135.39682291 77.8125 140.25 C85.10873787 149.80679619 92.33659309 159.41360133 99.53637695 169.04321289 C100.01937256 169.68895264 100.50236816 170.33469238 101 171 C101.42917725 171.69099289 101.85835449 172.38198578 102.30053711 173.09391785 C103.8285288 175.18034564 103.8285288 175.18034564 106.14506531 175.48101807 C106.97335342 175.47213562 107.80164154 175.46325317 108.6550293 175.45410156 C110.06615242 175.45364838 110.06615242 175.45364838 111.50578308 175.45318604 C112.51836685 175.43254089 113.53095062 175.41189575 114.57421875 175.390625 C115.61318802 175.38496521 116.65215729 175.37930542 117.72261047 175.37347412 C121.04470681 175.35106327 124.36572904 175.3008569 127.6875 175.25 C129.93813548 175.22994115 132.18878784 175.21168931 134.43945312 175.1953125 C139.9600026 175.1511832 145.47992457 175.08422421 151 175 C150.05465622 173.73620983 149.10884508 172.47276924 148.1628418 171.20947266 C147.63619431 170.50585602 147.10954681 169.80223938 146.56694031 169.07730103 C144.35500739 166.1449299 142.08950711 163.25694333 139.8125 160.375 C138.85023607 159.15366501 137.8879972 157.93231028 136.92578125 156.7109375 C136.44061035 156.09573242 135.95543945 155.48052734 135.45556641 154.84667969 C133.13345144 151.9006083 130.81697156 148.95011679 128.5 146 C127.58203832 144.83202569 126.66406956 143.66405695 125.74609375 142.49609375 C123.92396622 140.17719876 122.10381206 137.85677485 120.28515625 135.53515625 C116.08928293 130.18213856 111.88030669 124.84174105 107.61694336 119.54223633 C101.5599346 112.01235651 95.65864005 104.37425301 89.8125 96.6796875 C87.58435711 93.75114312 85.31517871 90.86058138 83 88 C84.55615273 82.96425109 87.60733248 79.52443255 90.9375 75.5625 C92.12204066 74.12968855 93.30561845 72.69608059 94.48828125 71.26171875 C95.0807666 70.5454834 95.67325195 69.82924805 96.28369141 69.09130859 C98.77610734 66.05431928 101.20627786 62.97080565 103.625 59.875 C104.07029053 59.30595947 104.51558105 58.73691895 104.97436523 58.15063477 C105.86905951 57.00666598 106.76334911 55.86238058 107.65722656 54.71777344 C110.39062281 51.22101417 113.13650256 47.73404452 115.87988281 44.24511719 C118.1504642 41.35660295 120.41829024 38.46602426 122.6796875 35.5703125 C128.26623352 28.42496608 133.93176235 21.35019229 139.67333984 14.32861328 C144.64498928 9.18837371 144.64498928 9.18837371 147 3 C122.75029024 -0.13586058 122.75029024 -0.13586058 99.58740234 4.73876953 C94.43480047 9.26249887 91.45461202 14.95651275 88.51025391 21.07080078 C86.03470039 25.87223808 82.70250125 29.95386753 79.375 34.1875 C78.1331848 35.83979781 76.89486405 37.49472808 75.66015625 39.15234375 C71.53449556 44.63895662 67.32297885 50.05706432 63.08007812 55.45336914 C60.18257699 59.14851095 57.34550423 62.87155879 54.59765625 66.6796875 C54.05455811 67.42702148 53.51145996 68.17435547 52.9519043 68.94433594 C51.92526354 70.36405343 50.90918527 71.79148886 49.90551758 73.22753906 C48.5234375 75.1328125 48.5234375 75.1328125 46 78 C44.68 78 43.36 78 42 78 C41.67 53.25 41.34 28.5 41 3 C28.46 3 15.92 3 3 3 Z " fill="#FFFFFF" transform="translate(652,455)"/>
<path d="M0 0 C17.16 0 34.32 0 52 0 C53.21171875 3.40441406 54.4234375 6.80882812 55.671875 10.31640625 C64.33378021 34.63337061 73.03772266 58.93358713 81.875 83.1875 C82.68764777 85.41924666 83.50022878 87.65101763 84.31274414 89.8828125 C84.720103 91.00169861 85.12746185 92.12058472 85.54716492 93.27337646 C86.16383781 94.9672348 86.16383781 94.9672348 86.79296875 96.6953125 C87.41272331 98.39763031 87.41272331 98.39763031 88.04499817 100.13433838 C89.13189432 103.12000022 90.21868128 106.10570176 91.30535126 109.09144592 C91.77923688 110.39345121 92.25316126 111.69544239 92.72711945 112.99742126 C95.80409601 121.45020606 98.87713192 129.9043976 101.94029617 138.36219883 C103.17985799 141.78448907 104.4212004 145.20610692 105.66717529 148.62606812 C107.04812027 152.41663778 108.42088521 156.21011995 109.79296875 160.00390625 C110.20549393 161.13251068 110.6180191 162.26111511 111.04304504 163.42391968 C111.6079792 164.99213974 111.6079792 164.99213974 112.18432617 166.59204102 C112.67675056 167.94870628 112.67675056 167.94870628 113.17912292 169.33277893 C114 172 114 172 115 178 C99.82 178 84.64 178 69 178 C64.9278537 167.81963425 61.46730763 157.4019229 58 147 C25.825 146.505 25.825 146.505 -7 146 C-7.99 149.63 -8.98 153.26 -10 157 C-12.31 163.93 -14.62 170.86 -17 178 C-32.18 178 -47.36 178 -63 178 C-62.30625434 173.14378041 -61.74628319 169.77161789 -60.13671875 165.3515625 C-59.75052872 164.28064865 -59.36433868 163.2097348 -58.96644592 162.10636902 C-58.54439377 160.95751724 -58.12234161 159.80866547 -57.6875 158.625 C-57.24703842 157.40931839 -56.80657684 156.19363678 -56.35276794 154.94111633 C-55.15818772 151.64423669 -53.95542622 148.35039695 -52.75117111 145.05704117 C-51.48542873 141.5908746 -50.22753393 138.12186298 -48.96899414 134.65307617 C-46.93489836 129.04914693 -44.89691003 123.4466501 -42.85595703 117.84521484 C-40.3927646 111.08397442 -37.9404038 104.31887389 -35.49609375 97.55078125 C-35.15366135 96.60261536 -34.81122894 95.65444946 -34.4584198 94.67755127 C-33.78352886 92.80862871 -33.10867772 90.93969178 -32.43386841 89.07073975 C-30.75764392 84.43045913 -29.07797218 79.79142706 -27.3984375 75.15234375 C-24.77888026 67.91630387 -22.16072424 60.67975881 -19.54409313 53.44266033 C-17.60159366 48.07013651 -15.65849298 42.69783037 -13.71500111 37.32566547 C-12.52677809 34.04112334 -11.33883553 30.75648041 -10.15158081 27.47158813 C-8.83244886 23.82186929 -7.51197896 20.1726353 -6.19140625 16.5234375 C-5.79639923 15.4299147 -5.40139221 14.33639191 -4.99441528 13.20973206 C-4.62831146 12.19869919 -4.26220764 11.18766632 -3.88500977 10.14599609 C-3.56766373 9.26849701 -3.25031769 8.39099792 -2.9233551 7.48690796 C-1.99083078 4.97530419 -0.99500512 2.4875128 0 0 Z M2 3 C0.58332031 6.94710938 -0.83335938 10.89421875 -2.29296875 14.9609375 C-11.69339418 41.14444229 -21.10252384 67.32466583 -30.57769775 93.48123169 C-31.87108767 97.05169982 -33.16384503 100.62239653 -34.45654297 104.19311523 C-38.23934721 114.63906977 -42.02768615 125.08293212 -45.83502197 135.51997375 C-47.44981851 139.94805783 -49.06120834 144.37737751 -50.67218018 148.80685425 C-51.42572408 150.87564142 -52.18102316 152.94379022 -52.93817139 155.01126099 C-53.96954361 157.82759358 -54.99517676 160.64595264 -56.01953125 163.46484375 C-56.3246312 164.29305634 -56.62973114 165.12126892 -56.94407654 165.97457886 C-58.53776227 170.37443019 -58.53776227 170.37443019 -59 175 C-46.13 175 -33.26 175 -20 175 C-16.91833528 167.37743997 -16.91833528 167.37743997 -14.11328125 159.68359375 C-13.81486328 158.81798828 -13.51644531 157.95238281 -13.20898438 157.06054688 C-12.59934372 155.27678348 -11.98997895 153.49292578 -11.38085938 151.70898438 C-11.08630859 150.85498047 -10.79175781 150.00097656 -10.48828125 149.12109375 C-10.09443237 147.96758423 -10.09443237 147.96758423 -9.69262695 146.79077148 C-9 145 -9 145 -8 144 C-5.91380978 143.90582227 -3.82439523 143.88257122 -1.73608398 143.88647461 C-0.7556311 143.88625557 -0.7556311 143.88625557 0.24462891 143.8860321 C2.41442128 143.88673117 4.58412879 143.89452322 6.75390625 143.90234375 C8.25463311 143.90420795 9.75536057 143.90563184 11.25608826 143.90663147 C15.21318226 143.91045648 19.17023978 143.9202866 23.12731934 143.93133545 C27.16234849 143.94154994 31.19738353 143.94612917 35.23242188 143.95117188 C43.15496469 143.96190889 51.07747781 143.9789851 59 144 C61.1927486 148.84934144 63.34000099 153.67966942 65.140625 158.69140625 C65.45547852 159.56224854 65.77033203 160.43309082 66.09472656 161.33032227 C66.4759668 162.39694092 66.85720703 163.46355957 67.25 164.5625 C68.4875 168.006875 69.725 171.45125 71 175 C84.2 175 97.4 175 111 175 C110.27968823 171.39844116 109.52430821 168.39571749 108.30444336 164.98999023 C107.78041679 163.51914474 107.78041679 163.51914474 107.24580383 162.01858521 C106.86433701 160.95928802 106.48287018 159.89999084 106.08984375 158.80859375 C105.49184212 157.13553665 105.49184212 157.13553665 104.88175964 155.42868042 C103.79685106 152.39617714 102.70874719 149.36484535 101.61899567 146.33407974 C100.70259223 143.78375949 99.78876305 141.23251988 98.87487793 138.68129635 C92.71798712 121.49532674 86.51221984 104.3271917 80.25097656 87.17895508 C76.46629993 76.80896995 72.71078766 66.4288517 68.9812851 56.038908 C68.22473471 53.93157071 67.4677049 51.82440629 66.71051025 49.71730042 C66.20593053 48.31308058 65.70135289 46.90886 65.19677734 45.50463867 C64.94704414 44.80966939 64.69731094 44.11470011 64.44001007 43.39867115 C62.95267356 39.25852332 61.46869328 35.11719085 59.98704243 30.97500515 C59.28525381 29.01487805 58.58176951 27.05536941 57.87754822 25.09611511 C57.01065461 22.68409068 56.14653191 20.27106792 55.28565979 17.85688782 C54.70182777 16.23607552 54.70182777 16.23607552 54.10620117 14.58251953 C53.77029465 13.64489777 53.43438812 12.707276 53.08830261 11.74124146 C51.90136401 8.75155341 50.43854495 5.87708989 49 3 C33.49 3 17.98 3 2 3 Z " fill="#FFFFFF" transform="translate(1388,455)"/>
<path d="M0 0 C17.16 0 34.32 0 52 0 C53.21171875 3.40441406 54.4234375 6.80882812 55.671875 10.31640625 C64.33378021 34.63337061 73.03772266 58.93358713 81.875 83.1875 C82.68764777 85.41924666 83.50022878 87.65101763 84.31274414 89.8828125 C84.720103 91.00169861 85.12746185 92.12058472 85.54716492 93.27337646 C86.16383781 94.9672348 86.16383781 94.9672348 86.79296875 96.6953125 C87.41272331 98.39763031 87.41272331 98.39763031 88.04499817 100.13433838 C89.13189432 103.12000022 90.21868128 106.10570176 91.30535126 109.09144592 C91.77923688 110.39345121 92.25316126 111.69544239 92.72711945 112.99742126 C95.80409601 121.45020606 98.87713192 129.9043976 101.94029617 138.36219883 C103.17985799 141.78448907 104.4212004 145.20610692 105.66717529 148.62606812 C107.04812027 152.41663778 108.42088521 156.21011995 109.79296875 160.00390625 C110.20549393 161.13251068 110.6180191 162.26111511 111.04304504 163.42391968 C111.6079792 164.99213974 111.6079792 164.99213974 112.18432617 166.59204102 C112.67675056 167.94870628 112.67675056 167.94870628 113.17912292 169.33277893 C114 172 114 172 115 178 C99.82 178 84.64 178 69 178 C64.9278537 167.81963425 61.46730763 157.4019229 58 147 C25.825 146.505 25.825 146.505 -7 146 C-7.99 149.63 -8.98 153.26 -10 157 C-12.31 163.93 -14.62 170.86 -17 178 C-32.18 178 -47.36 178 -63 178 C-62.30625434 173.14378041 -61.74628319 169.77161789 -60.13671875 165.3515625 C-59.75052872 164.28064865 -59.36433868 163.2097348 -58.96644592 162.10636902 C-58.54439377 160.95751724 -58.12234161 159.80866547 -57.6875 158.625 C-57.24703842 157.40931839 -56.80657684 156.19363678 -56.35276794 154.94111633 C-55.15818772 151.64423669 -53.95542622 148.35039695 -52.75117111 145.05704117 C-51.48542873 141.5908746 -50.22753393 138.12186298 -48.96899414 134.65307617 C-46.93489836 129.04914693 -44.89691003 123.4466501 -42.85595703 117.84521484 C-40.3927646 111.08397442 -37.9404038 104.31887389 -35.49609375 97.55078125 C-35.15366135 96.60261536 -34.81122894 95.65444946 -34.4584198 94.67755127 C-33.78352886 92.80862871 -33.10867772 90.93969178 -32.43386841 89.07073975 C-30.75764392 84.43045913 -29.07797218 79.79142706 -27.3984375 75.15234375 C-24.77888026 67.91630387 -22.16072424 60.67975881 -19.54409313 53.44266033 C-17.60159366 48.07013651 -15.65849298 42.69783037 -13.71500111 37.32566547 C-12.52677809 34.04112334 -11.33883553 30.75648041 -10.15158081 27.47158813 C-8.83244886 23.82186929 -7.51197896 20.1726353 -6.19140625 16.5234375 C-5.79639923 15.4299147 -5.40139221 14.33639191 -4.99441528 13.20973206 C-4.62831146 12.19869919 -4.26220764 11.18766632 -3.88500977 10.14599609 C-3.56766373 9.26849701 -3.25031769 8.39099792 -2.9233551 7.48690796 C-1.99083078 4.97530419 -0.99500512 2.4875128 0 0 Z M2 3 C0.58332031 6.94710938 -0.83335937 10.89421875 -2.29296875 14.9609375 C-11.69339418 41.14444229 -21.10252384 67.32466583 -30.57769775 93.48123169 C-31.87108767 97.05169982 -33.16384503 100.62239653 -34.45654297 104.19311523 C-38.23934721 114.63906977 -42.02768615 125.08293212 -45.83502197 135.51997375 C-47.44981851 139.94805783 -49.06120834 144.37737751 -50.67218018 148.80685425 C-51.42572408 150.87564142 -52.18102316 152.94379022 -52.93817139 155.01126099 C-53.96954361 157.82759358 -54.99517676 160.64595264 -56.01953125 163.46484375 C-56.3246312 164.29305634 -56.62973114 165.12126892 -56.94407654 165.97457886 C-58.53776227 170.37443019 -58.53776227 170.37443019 -59 175 C-46.13 175 -33.26 175 -20 175 C-16.91833528 167.37743997 -16.91833528 167.37743997 -14.11328125 159.68359375 C-13.81486328 158.81798828 -13.51644531 157.95238281 -13.20898438 157.06054688 C-12.59934372 155.27678348 -11.98997895 153.49292578 -11.38085938 151.70898438 C-11.08630859 150.85498047 -10.79175781 150.00097656 -10.48828125 149.12109375 C-10.09443237 147.96758423 -10.09443237 147.96758423 -9.69262695 146.79077148 C-9 145 -9 145 -8 144 C-5.91380978 143.90582227 -3.82439523 143.88257122 -1.73608398 143.88647461 C-0.7556311 143.88625557 -0.7556311 143.88625557 0.24462891 143.8860321 C2.41442128 143.88673117 4.58412879 143.89452322 6.75390625 143.90234375 C8.25463311 143.90420795 9.75536057 143.90563184 11.25608826 143.90663147 C15.21318226 143.91045648 19.17023978 143.9202866 23.12731934 143.93133545 C27.16234849 143.94154994 31.19738353 143.94612917 35.23242188 143.95117188 C43.15496469 143.96190889 51.07747781 143.9789851 59 144 C61.1927486 148.84934144 63.34000099 153.67966942 65.140625 158.69140625 C65.45547852 159.56224854 65.77033203 160.43309082 66.09472656 161.33032227 C66.4759668 162.39694092 66.85720703 163.46355957 67.25 164.5625 C68.4875 168.006875 69.725 171.45125 71 175 C84.2 175 97.4 175 111 175 C110.27968823 171.39844116 109.52430821 168.39571749 108.30444336 164.98999023 C107.78041679 163.51914474 107.78041679 163.51914474 107.24580383 162.01858521 C106.86433701 160.95928802 106.48287018 159.89999084 106.08984375 158.80859375 C105.49184212 157.13553665 105.49184212 157.13553665 104.88175964 155.42868042 C103.79685106 152.39617714 102.70874719 149.36484535 101.61899567 146.33407974 C100.70259223 143.78375949 99.78876305 141.23251988 98.87487793 138.68129635 C92.71798712 121.49532674 86.51221984 104.3271917 80.25097656 87.17895508 C76.46629993 76.80896995 72.71078766 66.4288517 68.9812851 56.038908 C68.22473471 53.93157071 67.4677049 51.82440629 66.71051025 49.71730042 C66.20593053 48.31308058 65.70135289 46.90886 65.19677734 45.50463867 C64.94704414 44.80966939 64.69731094 44.11470011 64.44001007 43.39867115 C62.95267356 39.25852332 61.46869328 35.11719085 59.98704243 30.97500515 C59.28525381 29.01487805 58.58176951 27.05536941 57.87754822 25.09611511 C57.01065461 22.68409068 56.14653191 20.27106792 55.28565979 17.85688782 C54.70182777 16.23607552 54.70182777 16.23607552 54.10620117 14.58251953 C53.77029465 13.64489777 53.43438812 12.707276 53.08830261 11.74124146 C51.90136401 8.75155341 50.43854495 5.87708989 49 3 C33.49 3 17.98 3 2 3 Z " fill="#FFFFFF" transform="translate(329,455)"/>
<path d="M0 0 C15.015 -0.0825 30.03 -0.165 45.5 -0.25 C50.20958984 -0.28641602 54.91917969 -0.32283203 59.77148438 -0.36035156 C65.60253906 -0.37841797 65.60253906 -0.37841797 68.34777832 -0.3817749 C70.23128053 -0.38784531 72.11476897 -0.40176081 73.99816895 -0.42230225 C92.02295493 -0.6087552 109.28060046 1.0845733 124.3125 12.25 C133.68012113 21.83547278 138.30520718 32.52548817 138.5 46 C138.33623088 58.32547019 134.75825887 68.18565599 126.1171875 76.8984375 C121.76497396 80.94343597 117.41574396 83.58225716 112 86 C112.78503906 86.36351562 113.57007813 86.72703125 114.37890625 87.1015625 C126.91725196 93.10150707 134.7506723 100.1291732 139.875 113.4375 C140.24625 114.613125 140.6175 115.78875 141 117 C141.27263672 117.85464844 141.27263672 117.85464844 141.55078125 118.7265625 C144.10282787 131.64213759 141.97932191 145.37385796 134.75 156.375 C125.38399115 168.58637862 112.92267721 174.10682789 98 177 C65.40398797 179.17306747 32.6683673 178 0 178 C0 119.26 0 60.52 0 0 Z M3 3 C3 59.76 3 116.52 3 175 C66.72325328 181.70557305 66.72325328 181.70557305 128.18359375 158.90234375 C137.398352 149.31561361 139.44039145 138.74692416 139.2109375 125.7890625 C138.59550907 114.73414441 133.71075969 105.15312109 125.625 97.625 C121.67948974 94.33486812 117.72333581 91.97921156 113 90 C112.32195312 89.70222656 111.64390625 89.40445313 110.9453125 89.09765625 C109.30378264 88.38237115 107.65286275 87.68869281 106 87 C108.30860948 84.40001263 110.5277658 83.1587355 113.6875 81.75 C124.11064867 76.63704352 130.32578518 69.17175793 134.375 58.3125 C136.65834052 46.51524066 135.64565571 33.89520764 129.4921875 23.4375 C121.17210962 11.98288115 109.35953105 5.85153472 95.59820557 3.42189026 C87.59346834 2.48333336 79.50484326 2.7593846 71.45703125 2.8046875 C69.70096972 2.80763383 67.94490642 2.80967063 66.18884277 2.81079102 C59.73003479 2.82121004 53.27126459 2.84913244 46.8125 2.875 C32.354375 2.91625 17.89625 2.9575 3 3 Z " fill="#FFFFFF" transform="translate(111,455)"/>
<path d="M0 0 C102.8150289 0 102.8150289 0 121.1875 17.02734375 C131.75218505 28.09225063 135.89250191 41.96433059 136.375 57.0625 C135.87732431 71.93304952 131.10561176 85.92181808 121 97 C106.93754458 108.94552665 91.33296253 114.2171588 73.00390625 114.09765625 C71.89396301 114.09614563 71.89396301 114.09614563 70.76159668 114.09460449 C68.02854842 114.08941897 65.29552246 114.07545815 62.5625 114.0625 C56.436875 114.041875 50.31125 114.02125 44 114 C44 135.12 44 156.24 44 178 C29.48 178 14.96 178 0 178 C0 119.26 0 60.52 0 0 Z M3 3 C3 59.76 3 116.52 3 175 C15.54 175 28.08 175 41 175 C41.09087891 168.30396484 41.09087891 168.30396484 41.18359375 161.47265625 C41.23452916 157.92262147 41.28645074 154.37260417 41.33904266 150.82259369 C41.39436399 147.06999149 41.4479303 143.31738269 41.49731445 139.56469727 C41.54490835 135.95311414 41.59724906 132.34162868 41.65294075 128.73016167 C41.67338694 127.34942481 41.69209622 125.96866114 41.70907402 124.58787727 C41.7330678 122.66016686 41.76370264 120.73254251 41.79467773 118.80493164 C41.81022202 117.70572891 41.8257663 116.60652618 41.84178162 115.47401428 C42 113 42 113 43 112 C45.71896895 111.87647135 48.41632781 111.81376715 51.13671875 111.7890625 C52.84701385 111.76093704 54.55730014 111.73227241 56.26757812 111.703125 C58.95710458 111.66228989 61.64647674 111.62540838 64.33618164 111.59863281 C85.2015397 111.37299829 103.51027579 108.73264785 119.296875 93.83203125 C129.00416833 83.52259379 132.94351029 71.0703166 133.375 57 C132.94576819 43.55073671 129.14113069 29.61153822 119.74609375 19.58203125 C88.91255174 -8.35439943 39.23689007 3 3 3 Z " fill="#FFFFFF" transform="translate(1679,455)"/>
<path d="M0 0 C102.8150289 0 102.8150289 0 121.1875 17.02734375 C131.75218505 28.09225063 135.89250191 41.96433059 136.375 57.0625 C135.87732431 71.93304952 131.10561176 85.92181808 121 97 C106.93754458 108.94552665 91.33296253 114.2171588 73.00390625 114.09765625 C71.89396301 114.09614563 71.89396301 114.09614563 70.76159668 114.09460449 C68.02854842 114.08941897 65.29552246 114.07545815 62.5625 114.0625 C56.436875 114.041875 50.31125 114.02125 44 114 C44 135.12 44 156.24 44 178 C29.48 178 14.96 178 0 178 C0 119.26 0 60.52 0 0 Z M3 3 C3 59.76 3 116.52 3 175 C15.54 175 28.08 175 41 175 C41.09087891 168.30396484 41.09087891 168.30396484 41.18359375 161.47265625 C41.23452916 157.92262147 41.28645074 154.37260417 41.33904266 150.82259369 C41.39436399 147.06999149 41.4479303 143.31738269 41.49731445 139.56469727 C41.54490835 135.95311414 41.59724906 132.34162868 41.65294075 128.73016167 C41.67338694 127.34942481 41.69209622 125.96866114 41.70907402 124.58787727 C41.7330678 122.66016686 41.76370264 120.73254251 41.79467773 118.80493164 C41.81022202 117.70572891 41.8257663 116.60652618 41.84178162 115.47401428 C42 113 42 113 43 112 C45.71896895 111.87647135 48.41632781 111.81376715 51.13671875 111.7890625 C52.84701385 111.76093704 54.55730014 111.73227241 56.26757812 111.703125 C58.95710458 111.66228989 61.64647674 111.62540838 64.33618164 111.59863281 C85.2015397 111.37299829 103.51027579 108.73264785 119.296875 93.83203125 C129.00416833 83.52259379 132.94351029 71.0703166 133.375 57 C132.94576819 43.55073671 129.14113069 29.61153822 119.74609375 19.58203125 C88.91255174 -8.35439943 39.23689007 3 3 3 Z " fill="#FFFFFF" transform="translate(1522,455)"/>
<path d="M0 0 C14.52 0 29.04 0 44 0 C44 58.74 44 117.48 44 178 C29.48 178 14.96 178 0 178 C0 119.26 0 60.52 0 0 Z M3 3 C3 59.76 3 116.52 3 175 C15.54 175 28.08 175 41 175 C41 118.24 41 61.48 41 3 C28.46 3 15.92 3 3 3 Z " fill="#FFFFFF" transform="translate(827,455)"/>
<path d="M0 0 C1.96173096 0.22471619 1.96173096 0.22471619 4 1 C5.27442117 3.69106651 6.2495988 6.19112802 7.171875 9.00390625 C7.45581116 9.82634323 7.73974731 10.64878021 8.0322876 11.49613953 C8.95431522 14.17972867 9.85272134 16.8705449 10.75 19.5625 C11.37251103 21.39656213 11.99621089 23.23022118 12.62109375 25.06347656 C13.85684922 28.69656376 15.08316247 32.33264178 16.30273438 35.97119141 C17.75072177 40.2807502 19.24639229 44.57052642 20.765625 48.85546875 C21.51079081 50.9868484 22.25561842 53.11834633 23 55.25 C23.34385742 56.20463135 23.68771484 57.1592627 24.04199219 58.14282227 C24.33750977 59.00834717 24.63302734 59.87387207 24.9375 60.765625 C25.19402344 61.49555664 25.45054688 62.22548828 25.71484375 62.97753906 C26.08130623 65.57666169 25.22846401 66.73865676 24 69 C17.60962769 69.02527062 11.21926817 69.04283317 4.82885742 69.05493164 C2.65307127 69.05997308 0.47728853 69.06680607 -1.69848633 69.07543945 C-4.81853067 69.08751338 -7.93853038 69.09323005 -11.05859375 69.09765625 C-12.52733192 69.10539818 -12.52733192 69.10539818 -14.02574158 69.11329651 C-14.92659988 69.11337204 -15.82745819 69.11344757 -16.75561523 69.11352539 C-17.95141457 69.11685631 -17.95141457 69.11685631 -19.17137146 69.12025452 C-21 69 -21 69 -22 68 C-21.61969407 60.37938795 -19.03068165 53.51407635 -16.5625 46.34765625 C-16.11733301 45.03889069 -15.67276273 43.72992203 -15.22875977 42.42076111 C-14.30206126 39.69350972 -13.37035465 36.9680434 -12.43457031 34.24389648 C-11.23343371 30.74694502 -10.04175708 27.24686286 -8.85334778 23.74556828 C-7.93797668 21.05020861 -7.01936587 18.35596308 -6.09957886 15.66210747 C-5.65878528 14.37087512 -5.21861828 13.07942871 -4.77908325 11.78776741 C-4.1669807 9.99166162 -3.55040188 8.19708316 -2.93359375 6.40258789 C-2.58353271 5.38080948 -2.23347168 4.35903107 -1.87280273 3.30628967 C-1 1 -1 1 0 0 Z M1 4 C-1.6111984 11.78731151 -4.21917958 19.5756897 -6.82302856 27.36546135 C-8.03212264 30.98229402 -9.24233324 34.59874513 -10.45507812 38.21435547 C-11.62479069 41.70180674 -12.79159295 45.19021907 -13.95635986 48.6793251 C-14.40187462 50.01216607 -14.84844763 51.34465377 -15.29608154 52.67678452 C-15.92151893 54.53863801 -16.54289073 56.40185575 -17.1640625 58.26513672 C-17.51936035 59.32658905 -17.8746582 60.38804138 -18.24072266 61.48165894 C-19.09622144 63.88075804 -19.09622144 63.88075804 -19 66 C-5.14 66 8.72 66 23 66 C16.12214941 45.28739246 9.2132105 24.59809266 2 4 C1.67 4 1.34 4 1 4 Z " fill="#FFFFFF" transform="translate(1412,501)"/>
<path d="M0 0 C1.96173096 0.22471619 1.96173096 0.22471619 4 1 C5.27442117 3.69106651 6.2495988 6.19112802 7.171875 9.00390625 C7.45581116 9.82634323 7.73974731 10.64878021 8.0322876 11.49613953 C8.95431522 14.17972867 9.85272134 16.8705449 10.75 19.5625 C11.37251103 21.39656213 11.99621089 23.23022118 12.62109375 25.06347656 C13.85684922 28.69656376 15.08316247 32.33264178 16.30273438 35.97119141 C17.75072177 40.2807502 19.24639229 44.57052642 20.765625 48.85546875 C21.51079081 50.9868484 22.25561842 53.11834633 23 55.25 C23.34385742 56.20463135 23.68771484 57.1592627 24.04199219 58.14282227 C24.33750977 59.00834717 24.63302734 59.87387207 24.9375 60.765625 C25.19402344 61.49555664 25.45054687 62.22548828 25.71484375 62.97753906 C26.08130623 65.57666169 25.22846401 66.73865676 24 69 C17.60962769 69.02527062 11.21926817 69.04283317 4.82885742 69.05493164 C2.65307127 69.05997308 0.47728853 69.06680607 -1.69848633 69.07543945 C-4.81853067 69.08751338 -7.93853038 69.09323005 -11.05859375 69.09765625 C-12.52733192 69.10539818 -12.52733192 69.10539818 -14.02574158 69.11329651 C-14.92659988 69.11337204 -15.82745819 69.11344757 -16.75561523 69.11352539 C-17.95141457 69.11685631 -17.95141457 69.11685631 -19.17137146 69.12025452 C-21 69 -21 69 -22 68 C-21.61969407 60.37938795 -19.03068165 53.51407635 -16.5625 46.34765625 C-16.11733301 45.03889069 -15.67276273 43.72992203 -15.22875977 42.42076111 C-14.30206126 39.69350972 -13.37035465 36.9680434 -12.43457031 34.24389648 C-11.23343371 30.74694502 -10.04175708 27.24686286 -8.85334778 23.74556828 C-7.93797668 21.05020861 -7.01936587 18.35596308 -6.09957886 15.66210747 C-5.65878528 14.37087512 -5.21861828 13.07942871 -4.77908325 11.78776741 C-4.1669807 9.99166162 -3.55040188 8.19708316 -2.93359375 6.40258789 C-2.58353271 5.38080948 -2.23347168 4.35903107 -1.87280273 3.30628967 C-1 1 -1 1 0 0 Z M1 4 C-1.6111984 11.78731151 -4.21917958 19.5756897 -6.82302856 27.36546135 C-8.03212264 30.98229402 -9.24233324 34.59874513 -10.45507812 38.21435547 C-11.62479069 41.70180674 -12.79159295 45.19021907 -13.95635986 48.6793251 C-14.40187462 50.01216607 -14.84844763 51.34465377 -15.29608154 52.67678452 C-15.92151893 54.53863801 -16.54289073 56.40185575 -17.1640625 58.26513672 C-17.51936035 59.32658905 -17.8746582 60.38804138 -18.24072266 61.48165894 C-19.09622144 63.88075804 -19.09622144 63.88075804 -19 66 C-5.14 66 8.72 66 23 66 C16.12214941 45.28739246 9.2132105 24.59809266 2 4 C1.67 4 1.34 4 1 4 Z " fill="#FFFFFF" transform="translate(353,501)"/>
<path d="M0 0 C0.83909912 -0.0066568 1.67819824 -0.0133136 2.54272461 -0.02017212 C4.32484749 -0.03031378 6.10700845 -0.03498867 7.88916016 -0.03466797 C10.58692434 -0.03900134 13.28299866 -0.07519117 15.98046875 -0.11328125 C35.06342324 -0.2416004 35.06342324 -0.2416004 43.09765625 6.37109375 C43.62230469 7.04011719 44.14695313 7.70914063 44.6875 8.3984375 C45.23535156 9.07003906 45.78320312 9.74164062 46.34765625 10.43359375 C50.01885106 15.90109183 49.10603748 23.04759252 48.625 29.3359375 C47.40455071 34.35765877 45.11726392 37.31317061 40.875 40.2109375 C34.39342099 44.10533161 27.18353773 44.64069494 19.8203125 44.6015625 C19.01512177 44.60347595 18.20993103 44.6053894 17.38034058 44.60736084 C15.69463789 44.60871184 14.00892442 44.60509192 12.32324219 44.59667969 C9.73609442 44.58587945 7.14962769 44.59665463 4.5625 44.609375 C2.9192693 44.60805486 1.27603902 44.6054955 -0.3671875 44.6015625 C-1.52805374 44.60763519 -1.52805374 44.60763519 -2.71237183 44.61383057 C-8.14502159 44.56591591 -8.14502159 44.56591591 -10.375 42.3359375 C-10.57506302 39.34631647 -10.65472923 36.451314 -10.640625 33.4609375 C-10.64253845 32.58066895 -10.6444519 31.70040039 -10.64642334 30.79345703 C-10.64778552 28.93066116 -10.64408682 27.06785581 -10.63574219 25.20507812 C-10.62504307 22.34744014 -10.63563632 19.49043084 -10.6484375 16.6328125 C-10.64711591 14.82551944 -10.64455353 13.01822677 -10.640625 11.2109375 C-10.64467346 10.35258301 -10.64872192 9.49422852 -10.65289307 8.60986328 C-10.58446603 -0.01063133 -7.76683716 0.02130462 0 0 Z M-7.375 3.3359375 C-7.375 15.8759375 -7.375 28.4159375 -7.375 41.3359375 C1.2565625 41.42875 1.2565625 41.42875 10.0625 41.5234375 C11.86001709 41.55074951 13.65753418 41.57806152 15.50952148 41.60620117 C29.06274945 41.78424573 29.06274945 41.78424573 41.0625 35.8984375 C45.20475885 31.75617865 45.93136057 28.86465319 46 23.0234375 C45.87790515 15.76286376 44.5112855 12.14626812 39.25 7.0234375 C33.54461191 3.35568801 28.29354146 3.05554836 21.7265625 3.140625 C20.98559326 3.14263916 20.24462402 3.14465332 19.48120117 3.14672852 C16.73740365 3.15712062 13.99369501 3.18504278 11.25 3.2109375 C5.10375 3.2521875 -1.0425 3.2934375 -7.375 3.3359375 Z " fill="#FFFFFF" transform="translate(162.375,555.6640625)"/>
<path d="M0 0 C0.73190552 -0.00807175 1.46381104 -0.01614349 2.21789551 -0.02445984 C3.77479675 -0.03832456 5.33172869 -0.04903598 6.88867188 -0.05688477 C9.24410213 -0.07394962 11.59807344 -0.11779123 13.953125 -0.16210938 C23.5569892 -0.26160478 31.02475896 0.30900605 38.65625 6.61328125 C44.5151414 13.85073534 45.62127255 21.17803803 44.78125 30.23828125 C43.07664511 37.41610545 39.99388988 42.23239355 33.78125 46.23828125 C26.44008654 49.99838936 18.08376387 49.42456751 10.04833984 49.42358398 C8.02290428 49.42579034 5.99799713 49.44404227 3.97265625 49.46289062 C2.69777344 49.46482422 1.42289063 49.46675781 0.109375 49.46875 C-1.0569043 49.47285889 -2.22318359 49.47696777 -3.42480469 49.48120117 C-6.21875 49.23828125 -6.21875 49.23828125 -8.21875 47.23828125 C-8.46598816 45.25816345 -8.46598816 45.25816345 -8.46166992 42.80444336 C-8.46474655 41.88686752 -8.46782318 40.96929169 -8.47099304 40.02391052 C-8.46380753 39.0311763 -8.45662201 38.03844208 -8.44921875 37.015625 C-8.44876053 35.9998085 -8.44830231 34.983992 -8.4478302 33.93739319 C-8.44480596 31.78792148 -8.43691456 29.638452 -8.42456055 27.48901367 C-8.40630624 24.18595683 -8.4040508 20.88318013 -8.40429688 17.58007812 C-8.39938179 15.49609131 -8.39355351 13.4121064 -8.38671875 11.328125 C-8.38504951 9.83598732 -8.38504951 9.83598732 -8.38334656 8.31370544 C-8.37696671 7.39928177 -8.37058685 6.48485809 -8.36401367 5.54272461 C-8.36020187 4.73379257 -8.35639008 3.92486053 -8.35246277 3.09141541 C-8.03443124 -1.31620476 -3.4355307 0.03572792 0 0 Z M-5.21875 3.23828125 C-5.21875 17.42828125 -5.21875 31.61828125 -5.21875 46.23828125 C1.401875 46.33109375 1.401875 46.33109375 8.15625 46.42578125 C9.52700684 46.45309326 10.89776367 46.48040527 12.31005859 46.50854492 C20.45543845 46.56342974 28.47562747 46.47439818 35.21875 41.40625 C40.86941456 34.24403267 42.65733907 28.36656414 41.78125 19.23828125 C40.67104651 13.52577967 38.2192833 10.15859808 33.79296875 6.46484375 C28.83890775 3.44430947 24.12401293 2.99577908 18.4140625 3.04296875 C17.17027832 3.04796387 15.92649414 3.05295898 14.64501953 3.05810547 C13.08122559 3.07631348 11.51743164 3.09452148 9.90625 3.11328125 C2.419375 3.17515625 2.419375 3.17515625 -5.21875 3.23828125 Z " fill="#FFFFFF" transform="translate(1728.21875,487.76171875)"/>
<path d="M0 0 C0.73190552 -0.00807175 1.46381104 -0.01614349 2.21789551 -0.02445984 C3.77479675 -0.03832456 5.33172869 -0.04903598 6.88867188 -0.05688477 C9.24410213 -0.07394962 11.59807344 -0.11779123 13.953125 -0.16210938 C23.5569892 -0.26160478 31.02475896 0.30900605 38.65625 6.61328125 C44.5151414 13.85073534 45.62127255 21.17803803 44.78125 30.23828125 C43.07664511 37.41610545 39.99388988 42.23239355 33.78125 46.23828125 C26.44008654 49.99838936 18.08376387 49.42456751 10.04833984 49.42358398 C8.02290428 49.42579034 5.99799713 49.44404227 3.97265625 49.46289062 C2.69777344 49.46482422 1.42289063 49.46675781 0.109375 49.46875 C-1.0569043 49.47285889 -2.22318359 49.47696777 -3.42480469 49.48120117 C-6.21875 49.23828125 -6.21875 49.23828125 -8.21875 47.23828125 C-8.46598816 45.25816345 -8.46598816 45.25816345 -8.46166992 42.80444336 C-8.46474655 41.88686752 -8.46782318 40.96929169 -8.47099304 40.02391052 C-8.46380753 39.0311763 -8.45662201 38.03844208 -8.44921875 37.015625 C-8.44876053 35.9998085 -8.44830231 34.983992 -8.4478302 33.93739319 C-8.44480596 31.78792148 -8.43691456 29.638452 -8.42456055 27.48901367 C-8.40630624 24.18595683 -8.4040508 20.88318013 -8.40429688 17.58007812 C-8.39938179 15.49609131 -8.39355351 13.4121064 -8.38671875 11.328125 C-8.38504951 9.83598732 -8.38504951 9.83598732 -8.38334656 8.31370544 C-8.37696671 7.39928177 -8.37058685 6.48485809 -8.36401367 5.54272461 C-8.36020187 4.73379257 -8.35639008 3.92486053 -8.35246277 3.09141541 C-8.03443124 -1.31620476 -3.4355307 0.03572792 0 0 Z M-5.21875 3.23828125 C-5.21875 17.42828125 -5.21875 31.61828125 -5.21875 46.23828125 C1.401875 46.33109375 1.401875 46.33109375 8.15625 46.42578125 C9.52700684 46.45309326 10.89776367 46.48040527 12.31005859 46.50854492 C20.45543845 46.56342974 28.47562747 46.47439818 35.21875 41.40625 C40.86941456 34.24403267 42.65733907 28.36656414 41.78125 19.23828125 C40.67104651 13.52577967 38.2192833 10.15859808 33.79296875 6.46484375 C28.83890775 3.44430947 24.12401293 2.99577908 18.4140625 3.04296875 C17.17027832 3.04796387 15.92649414 3.05295898 14.64501953 3.05810547 C13.08122559 3.07631348 11.51743164 3.09452148 9.90625 3.11328125 C2.419375 3.17515625 2.419375 3.17515625 -5.21875 3.23828125 Z " fill="#FFFFFF" transform="translate(1571.21875,487.76171875)"/>
<path d="M0 0 C1.12994385 0.00326294 1.12994385 0.00326294 2.28271484 0.0065918 C4.54575405 0.00971555 6.80743858 -0.01356742 9.0703125 -0.0390625 C19.24536791 -0.08356967 29.5672743 0.2616464 37.58203125 7.32226562 C41.63200659 12.54926505 42.20995362 17.94085096 41.96484375 24.41992188 C41.20836482 30.1552672 38.98020698 34.31767187 34.70703125 38.19726562 C28.91959995 42.13271891 23.75147607 42.62343553 16.97265625 42.58789062 C15.76062531 42.5907608 15.76062531 42.5907608 14.52410889 42.59368896 C12.82645351 42.59504364 11.12878753 42.59139757 9.43115234 42.58300781 C6.82626361 42.57224179 4.22205575 42.58295579 1.6171875 42.59570312 C-0.03515777 42.5943825 -1.68750263 42.59182211 -3.33984375 42.58789062 C-4.12002869 42.59193909 -4.90021362 42.59598755 -5.70404053 42.60015869 C-11.18801007 42.5522243 -11.18801007 42.5522243 -13.41796875 40.32226562 C-13.61787102 37.4768642 -13.69773851 34.73088779 -13.68359375 31.88476562 C-13.6855072 31.04888916 -13.68742065 30.2130127 -13.68939209 29.35180664 C-13.69075411 27.58316751 -13.68705651 25.8145184 -13.67871094 24.04589844 C-13.6680115 21.33310569 -13.67860551 18.62097519 -13.69140625 15.90820312 C-13.69008466 14.19205582 -13.68752227 12.47590894 -13.68359375 10.75976562 C-13.68764221 9.94515869 -13.69169067 9.13055176 -13.69586182 8.29125977 C-13.61331048 -1.58430645 -8.25181806 0.03164424 0 0 Z M-10.41796875 3.32226562 C-10.41796875 15.20226562 -10.41796875 27.08226562 -10.41796875 39.32226562 C-4.78734375 39.38414062 0.84328125 39.44601562 6.64453125 39.50976562 C9.28980835 39.55073364 9.28980835 39.55073364 11.98852539 39.5925293 C13.40640582 39.60130165 14.82429389 39.60894381 16.2421875 39.61523438 C17.32203918 39.63825623 17.32203918 39.63825623 18.42370605 39.66174316 C24.8450921 39.66502329 29.43652506 38.18170432 34.39453125 33.88476562 C38.58113586 28.98045737 38.96708919 25.35295385 38.83203125 19.01367188 C38.37698048 14.11476597 36.70837146 11.36196428 33.14453125 8.07226562 C26.70802283 3.67660134 20.96788794 3.192572 13.21484375 3.22460938 C11.97105957 3.22710693 10.72727539 3.22960449 9.44580078 3.23217773 C7.88200684 3.24128174 6.31821289 3.25038574 4.70703125 3.25976562 C-0.28421875 3.28039062 -5.27546875 3.30101562 -10.41796875 3.32226562 Z " fill="#FFFFFF" transform="translate(165.41796875,486.677734375)"/>
</svg>
