<?xml version="1.0" encoding="UTF-8"?>
<svg version="1.1" xmlns="http://www.w3.org/2000/svg" width="1926" height="1080">
<path d="M0 0 C1.17175781 0.3403125 2.34351563 0.680625 3.55078125 1.03125 C21.34976244 6.78917178 38.16034671 18.81630006 46.98046875 35.65234375 C49.59122462 40.93983364 51.85759694 45.96244492 53.09033203 51.73803711 C53.349207 52.93945595 53.349207 52.93945595 53.61331177 54.16514587 C53.74091888 54.77064774 53.868526 55.3761496 54 56 C47.13202572 56.20316111 40.26482795 56.34306849 33.39453125 56.43945312 C31.05862474 56.47963798 28.72291888 56.53419787 26.38769531 56.60351562 C23.0261894 56.70078473 19.66734577 56.74597681 16.3046875 56.78125 C15.26384003 56.82254028 14.22299255 56.86383057 13.15060425 56.90637207 C6.00917001 56.9107728 6.00917001 56.9107728 3.0450592 54.235672 C1.54086691 52.21954878 0.27892438 50.16231951 -1 48 C-3.12434264 46.00783418 -3.12434264 46.00783418 -5.3125 44.6875 C-5.98925781 44.23761719 -6.66601562 43.78773438 -7.36328125 43.32421875 C-14.44767687 39.76627784 -20.97683134 38.46648753 -28.875 38.5625 C-29.75196533 38.57007324 -30.62893066 38.57764648 -31.5324707 38.58544922 C-43.08640223 38.87871251 -52.41295152 42.95744545 -60.9375 50.77734375 C-72.30564236 62.75799378 -73.58920807 77.59395661 -73.30859375 93.2734375 C-72.80978872 105.91949042 -68.66081689 117.04129327 -59.81640625 126.28125 C-49.08517504 135.72614315 -34.99107832 138.77728213 -21 138 C-10.3754987 136.93754987 -0.23622161 133.13650271 7 125 C10.70209067 119.86996007 13.64711499 114.88221253 16 109 C-1.82 109 -19.64 109 -38 109 C-38 98.11 -38 87.22 -38 76 C-6.65 76 24.7 76 57 76 C57 130.63951735 57 130.63951735 35 154 C16.47320028 171.58062049 -8.14279716 178.81804514 -33.23828125 178.21875 C-58.05719762 176.77549007 -80.40430126 167.7059172 -97.83984375 149.57421875 C-116.11116346 127.80062076 -120.57290073 101.74747476 -119 74 C-117.80021312 63.48149806 -114.64077278 53.49993486 -110 44 C-109.58234375 43.1028125 -109.1646875 42.205625 -108.734375 41.28125 C-99.57433881 22.96117761 -83.09596238 9.02819003 -63.83837891 2.23779297 C-43.65969505 -4.39527796 -20.56383122 -6.09298703 0 0 Z M-94.84765625 26.4140625 C-103.33348602 36.60937884 -109.24252864 47.27868951 -113 60 C-113.33902344 61.14339844 -113.67804688 62.28679687 -114.02734375 63.46484375 C-119.95885377 87.76490091 -116.27552174 114.4501729 -103.91015625 136.11328125 C-91.40872265 155.00604082 -73.18127472 167.83734074 -51 173 C-25.9099913 177.73651729 -0.77470492 174.85159346 21 161 C24.84598604 158.1829401 28.44888769 155.17821683 32 152 C32.62261719 151.47148438 33.24523438 150.94296875 33.88671875 150.3984375 C37.95985192 146.69558917 41.03223736 142.33334936 44.125 137.8125 C44.53306885 137.2251709 44.9411377 136.6378418 45.36157227 136.03271484 C58.08412052 116.8165533 54 104.67773229 54 79 C24.63 79 -4.74 79 -35 79 C-35 87.91 -35 96.82 -35 106 C-17.18 106.33 0.64 106.66 19 107 C16.98279073 117.08604633 11.81538198 125.29628874 4 132 C-10.87284136 141.39977474 -25.374358 142.70908584 -42.421875 138.96484375 C-53.25455117 136.04380552 -62.50913698 129.53188609 -68.875 120.1875 C-74.61545419 110.05010217 -76.1914276 99.29661774 -76.25 87.875 C-76.270625 86.89273438 -76.29125 85.91046875 -76.3125 84.8984375 C-76.38176265 71.7385331 -72.02137429 60.60379535 -64.8125 49.6875 C-52.67026924 38.08492394 -40.01750017 35.57536469 -23.90234375 35.7890625 C-14.63252349 36.07213712 -6.23268624 39.06219791 1 45 C1.84704552 46.35551672 2.68882313 47.714332 3.52685547 49.07543945 C5.31304123 51.47920064 6.32271513 52.78185422 9.19604492 53.70732117 C11.82842808 53.92472132 14.35353567 53.90102804 16.9921875 53.78125 C18.41109787 53.76427063 18.41109787 53.76427063 19.8586731 53.74694824 C22.86621695 53.70232805 25.86890949 53.60199923 28.875 53.5 C30.91920174 53.45985413 32.96347858 53.42335529 35.0078125 53.390625 C40.00706422 53.30264007 45.00271112 53.16469706 50 53 C47.20527919 37.20397329 36.20934609 23.44278311 23.484375 14.32421875 C-11.99856665 -9.93838753 -65.29396167 -4.95578091 -94.84765625 26.4140625 Z " fill="#FFFFFF" transform="translate(1243,453)"/>
<path d="M0 0 C14.85 0 29.7 0 45 0 C54.68221111 10.37877306 54.68221111 10.37877306 56.359375 15.4453125 C59.07779055 22.6137957 63.06014673 28.43233106 67.4375 34.6875 C68.97435529 36.95679837 70.49312492 39.23798504 72.01171875 41.51953125 C72.40576401 42.1089299 72.79980927 42.69832855 73.20579529 43.30558777 C79.36627403 52.52386718 85.42956877 61.80677326 91.50561523 71.08081055 C98.94597028 82.42740191 106.47275921 93.70913881 114 105 C114.33 70.35 114.66 35.7 115 0 C129.52 0 144.04 0 159 0 C159 58.74 159 117.48 159 178 C144.48 178 129.96 178 115 178 C100.52699106 161.03164469 100.52699106 161.03164469 97.3671875 153.90234375 C96.62606971 152.35795904 95.87961306 150.81612536 95.12792969 149.27685547 C94.77291382 148.54601746 94.41789795 147.81517944 94.05212402 147.06219482 C91.46610032 141.99351035 88.14671526 137.37328318 84.9375 132.6875 C83.59672296 130.64118361 82.26108118 128.59149636 80.9296875 126.5390625 C74.18051244 116.18742809 67.36473544 105.87929451 60.5625 95.5625 C59.90555145 94.56600433 59.24860291 93.56950867 58.57174683 92.54281616 C56.69514361 89.69639611 54.81834816 86.85010298 52.94140625 84.00390625 C52.37136871 83.13949921 51.80133118 82.27509216 51.21401978 81.38449097 C50.68779022 80.58673248 50.16156067 79.788974 49.61938477 78.96704102 C49.15991959 78.2704689 48.70045441 77.57389679 48.22706604 76.85621643 C47.15527756 75.23489261 46.07809254 73.61713881 45 72 C44.67 106.98 44.34 141.96 44 178 C29.48 178 14.96 178 0 178 C0 119.26 0 60.52 0 0 Z M3 3 C3 59.76 3 116.52 3 175 C15.54 175 28.08 175 41 175 C41.33 139.69 41.66 104.38 42 68 C43.32 68 44.64 68 46 68 C47.72548994 70.04083744 49.11140935 71.95908184 50.53515625 74.19921875 C50.96554199 74.85189728 51.39592773 75.50457581 51.83935547 76.17703247 C53.26033443 78.33881894 54.66119891 80.51291663 56.0625 82.6875 C57.05853417 84.21071751 58.05586543 85.73308757 59.05444336 87.25463867 C61.58269496 91.11305904 64.09564663 94.98118763 66.60498047 98.85192871 C68.6117295 101.94194994 70.63265878 105.02255426 72.65625 108.1015625 C75.2528323 112.05440225 77.84611339 116.00934155 80.43348694 119.96821594 C87.14080905 130.22986465 93.87948465 140.47087485 100.62252808 150.70907593 C101.95479253 152.73223291 103.28660192 154.75568963 104.61795044 156.77944946 C106.48632398 159.61935969 108.35623216 162.45825323 110.2265625 165.296875 C110.79540665 166.1620726 111.36425079 167.0272702 111.95033264 167.91868591 C112.47026291 168.70703323 112.99019318 169.49538055 113.52587891 170.30761719 C113.98153229 170.99958191 114.43718567 171.69154663 114.90664673 172.40447998 C115.90528991 173.96648431 115.90528991 173.96648431 117 175 C129.87 175 142.74 175 156 175 C156 118.24 156 61.48 156 3 C143.46 3 130.92 3 118 3 C117.67 38.31 117.34 73.62 117 110 C116.01 110 115.02 110 114 110 C112.18774414 107.9453125 112.18774414 107.9453125 110.22265625 105.125 C109.51512207 104.114375 108.80758789 103.10375 108.07861328 102.0625 C105.14527633 97.7407031 102.26391381 93.39244378 99.4375 89 C98.12176462 86.96961719 96.80531056 84.93969998 95.48828125 82.91015625 C94.77365723 81.80816895 94.0590332 80.70618164 93.32275391 79.57080078 C90.82468 75.72560152 88.30963948 71.89163717 85.79296875 68.05859375 C85.33811096 67.36362289 84.88325317 66.66865204 84.41461182 65.95262146 C82.01577986 62.29241925 79.59634366 58.64873923 77.13818359 55.02807617 C72.299798 47.85593323 67.73879838 40.71022081 63.77624512 33.01054382 C61.91469481 29.42581425 59.94098631 25.90882047 57.95623779 22.3911438 C57.04392096 20.70320783 56.18465642 18.9852422 55.38751221 17.23995972 C52.08847328 10.05576131 49.77819615 8.60367971 43 3 C29.8 3 16.6 3 3 3 Z " fill="#FFFFFF" transform="translate(942,452)"/>
<path d="M0 0 C14.85 0 29.7 0 45 0 C54.68221111 10.37877306 54.68221111 10.37877306 56.359375 15.4453125 C59.07779055 22.6137957 63.06014673 28.43233106 67.4375 34.6875 C68.97435529 36.95679837 70.49312492 39.23798504 72.01171875 41.51953125 C72.40576401 42.1089299 72.79980927 42.69832855 73.20579529 43.30558777 C79.36627403 52.52386718 85.42956877 61.80677326 91.50561523 71.08081055 C98.94597028 82.42740191 106.47275921 93.70913881 114 105 C114.33 70.35 114.66 35.7 115 0 C129.52 0 144.04 0 159 0 C159 58.74 159 117.48 159 178 C144.48 178 129.96 178 115 178 C100.52699106 161.03164469 100.52699106 161.03164469 97.3671875 153.90234375 C96.62606971 152.35795904 95.87961306 150.81612536 95.12792969 149.27685547 C94.77291382 148.54601746 94.41789795 147.81517944 94.05212402 147.06219482 C91.46610032 141.99351035 88.14671526 137.37328318 84.9375 132.6875 C83.59672296 130.64118361 82.26108118 128.59149636 80.9296875 126.5390625 C74.18051244 116.18742809 67.36473544 105.87929451 60.5625 95.5625 C59.90555145 94.56600433 59.24860291 93.56950867 58.57174683 92.54281616 C56.69514361 89.69639611 54.81834816 86.85010298 52.94140625 84.00390625 C52.37136871 83.13949921 51.80133118 82.27509216 51.21401978 81.38449097 C50.68779022 80.58673248 50.16156067 79.788974 49.61938477 78.96704102 C49.15991959 78.2704689 48.70045441 77.57389679 48.22706604 76.85621643 C47.15527756 75.23489261 46.07809254 73.61713881 45 72 C44.67 106.98 44.34 141.96 44 178 C29.48 178 14.96 178 0 178 C0 119.26 0 60.52 0 0 Z M3 3 C3 59.76 3 116.52 3 175 C15.54 175 28.08 175 41 175 C41.33 139.69 41.66 104.38 42 68 C43.32 68 44.64 68 46 68 C47.72548994 70.04083744 49.11140935 71.95908184 50.53515625 74.19921875 C50.96554199 74.85189728 51.39592773 75.50457581 51.83935547 76.17703247 C53.26033443 78.33881894 54.66119891 80.51291663 56.0625 82.6875 C57.05853417 84.21071751 58.05586543 85.73308757 59.05444336 87.25463867 C61.58269496 91.11305904 64.09564663 94.98118763 66.60498047 98.85192871 C68.6117295 101.94194994 70.63265878 105.02255426 72.65625 108.1015625 C75.2528323 112.05440225 77.84611339 116.00934155 80.43348694 119.96821594 C87.14080905 130.22986465 93.87948465 140.47087485 100.62252808 150.70907593 C101.95479253 152.73223291 103.28660192 154.75568963 104.61795044 156.77944946 C106.48632398 159.61935969 108.35623216 162.45825323 110.2265625 165.296875 C110.79540665 166.1620726 111.36425079 167.0272702 111.95033264 167.91868591 C112.47026291 168.70703323 112.99019318 169.49538055 113.52587891 170.30761719 C113.98153229 170.99958191 114.43718567 171.69154663 114.90664673 172.40447998 C115.90528991 173.96648431 115.90528991 173.96648431 117 175 C129.87 175 142.74 175 156 175 C156 118.24 156 61.48 156 3 C143.46 3 130.92 3 118 3 C117.67 38.31 117.34 73.62 117 110 C116.01 110 115.02 110 114 110 C112.18774414 107.9453125 112.18774414 107.9453125 110.22265625 105.125 C109.51512207 104.114375 108.80758789 103.10375 108.07861328 102.0625 C105.14527633 97.7407031 102.26391381 93.39244378 99.4375 89 C98.12176462 86.96961719 96.80531056 84.93969998 95.48828125 82.91015625 C94.77365723 81.80816895 94.0590332 80.70618164 93.32275391 79.57080078 C90.82468 75.72560152 88.30963948 71.89163717 85.79296875 68.05859375 C85.33811096 67.36362289 84.88325317 66.66865204 84.41461182 65.95262146 C82.01577986 62.29241925 79.59634366 58.64873923 77.13818359 55.02807617 C72.299798 47.85593323 67.73879838 40.71022081 63.77624512 33.01054382 C61.91469481 29.42581425 59.94098631 25.90882047 57.95623779 22.3911438 C57.04392096 20.70320783 56.18465642 18.9852422 55.38751221 17.23995972 C52.08847328 10.05576131 49.77819615 8.60367971 43 3 C29.8 3 16.6 3 3 3 Z " fill="#FFFFFF" transform="translate(678,452)"/>
<path d="M0 0 C35.97 0 71.94 0 109 0 C109 11.55 109 23.1 109 35 C87.55 35 66.1 35 44 35 C44 46.55 44 58.1 44 70 C63.14 70 82.28 70 102 70 C102 81.22 102 92.44 102 104 C82.86 104 63.72 104 44 104 C44 116.54 44 129.08 44 142 C65.45 142 86.9 142 109 142 C109 153.88 109 165.76 109 178 C73.03 178 37.06 178 0 178 C0 119.26 0 60.52 0 0 Z M3 3 C3 59.76 3 116.52 3 175 C36.99 175 70.98 175 106 175 C106 165.1 106 155.2 106 145 C99.19568359 144.90912109 99.19568359 144.90912109 92.25390625 144.81640625 C89.38735983 144.77593144 86.52082339 144.73516824 83.65429688 144.69335938 C79.10021265 144.62696483 74.54613046 144.56166309 69.99194336 144.50268555 C66.32200665 144.45509259 62.65216609 144.40275191 58.98234367 144.34705925 C57.57927773 144.32661263 56.1761854 144.30790343 54.7730732 144.29092598 C52.81423074 144.26693313 50.85547299 144.23629801 48.89672852 144.20532227 C47.77976089 144.18977798 46.66279327 144.1742337 45.51197815 144.15821838 C43 144 43 144 42 143 C41.89889647 140.0546443 41.86030721 137.1332244 41.8671875 134.1875 C41.86623077 133.30344482 41.86527405 132.41938965 41.86428833 131.50854492 C41.86360649 129.63557871 41.86546107 127.76261014 41.86962891 125.88964844 C41.87497711 123.01231612 41.86968407 120.13513992 41.86328125 117.2578125 C41.86394203 115.44270799 41.86522319 113.62760357 41.8671875 111.8125 C41.86516327 110.94584717 41.86313904 110.07919434 41.86105347 109.1862793 C41.88504991 103.11495009 41.88504991 103.11495009 43 102 C44.74838835 101.8768483 46.50164504 101.82212189 48.25415039 101.79467773 C49.37523697 101.77473251 50.49632355 101.75478729 51.65138245 101.73423767 C52.8711528 101.71752518 54.09092316 101.70081268 55.34765625 101.68359375 C56.58921982 101.66281265 57.83078339 101.64203156 59.10997009 101.62062073 C62.41599123 101.56616391 65.72202245 101.51595795 69.02813721 101.46777344 C72.3996748 101.41760145 75.77112148 101.3619467 79.14257812 101.30664062 C85.76164956 101.19846585 92.38076941 101.09948955 99 101 C99 91.76 99 82.52 99 73 C94.96910156 72.93941406 90.93820312 72.87882813 86.78515625 72.81640625 C83.57920569 72.76546942 80.37327446 72.71354797 77.16735077 72.66095734 C73.77867386 72.60564023 70.38998963 72.55207469 67.0012207 72.50268555 C63.11660573 72.44599054 59.23214122 72.38142415 55.34765625 72.31640625 C54.12788589 72.29969376 52.90811554 72.28298126 51.65138245 72.26576233 C50.53029587 72.24581711 49.40920929 72.22587189 48.25415039 72.20532227 C47.26153702 72.18977798 46.26892365 72.1742337 45.24623108 72.15821838 C43 72 43 72 42 71 C41.89900512 68.27275721 41.86029471 65.57137477 41.8671875 62.84375 C41.86623077 62.02628296 41.86527405 61.20881592 41.86428833 60.36657715 C41.86360655 58.63484622 41.86546071 56.90311276 41.86962891 55.17138672 C41.87497721 52.51133518 41.86968388 49.8514525 41.86328125 47.19140625 C41.86394203 45.51302046 41.8652232 43.83463477 41.8671875 42.15625 C41.86516327 41.35521851 41.86313904 40.55418701 41.86105347 39.72888184 C41.88504921 34.11495079 41.88504921 34.11495079 43 33 C44.96287766 32.87636703 46.93015158 32.8220456 48.89672852 32.79467773 C50.15796036 32.77473251 51.4191922 32.75478729 52.71864319 32.73423767 C54.10539627 32.71725205 55.49215066 32.70037329 56.87890625 32.68359375 C58.2899589 32.66303074 59.70100529 32.64203445 61.11204529 32.62062073 C64.8323359 32.56533245 68.55268273 32.51595314 72.27307129 32.46777344 C76.73346884 32.40879297 81.19376332 32.342528 85.65407562 32.27747345 C92.43598764 32.17937895 99.2179647 32.09058132 106 32 C106 22.43 106 12.86 106 3 C72.01 3 38.02 3 3 3 Z " fill="#FFFFFF" transform="translate(192,452)"/>
<path d="M0 0 C105.2788162 0 105.2788162 0 124 17 C136.31198794 30.43497191 138.82734886 46.06198133 138.17919922 63.54589844 C137.32204273 75.28450473 131.14635516 86.66850041 123 95 C117.06152385 99.81556429 107.9803895 107 100 107 C106.88941667 119.34115101 113.89936405 131.60250399 121.125 143.75 C121.79660156 144.87954102 122.46820312 146.00908203 123.16015625 147.17285156 C123.82144531 148.28499023 124.48273438 149.39712891 125.1640625 150.54296875 C128.62933445 156.371241 132.08131565 162.20676748 135.5 168.0625 C135.96293457 168.84786133 136.42586914 169.63322266 136.90283203 170.44238281 C140 175.76801562 140 175.76801562 140 178 C123.5 178 107 178 90 178 C87.091875 172.616875 87.091875 172.616875 84.125 167.125 C80.11277975 159.71285615 76.09248915 152.3056928 72 144.9375 C71.61489258 144.24414551 71.22978516 143.55079102 70.83300781 142.83642578 C68.41119901 138.49234319 65.95790241 134.16696803 63.4921875 129.84765625 C62.59306641 128.2689978 62.59306641 128.2689978 61.67578125 126.65844727 C60.49217894 124.58248969 59.30478759 122.50868699 58.11328125 120.43725586 C57.57832031 119.49889893 57.04335938 118.56054199 56.4921875 117.59375 C56.01120605 116.75521484 55.53022461 115.91667969 55.03466797 115.05273438 C54 113 54 113 54 111 C50.7 111 47.4 111 44 111 C44 133.11 44 155.22 44 178 C29.48 178 14.96 178 0 178 C0 119.26 0 60.52 0 0 Z M3 3 C3 59.76 3 116.52 3 175 C15.54 175 28.08 175 41 175 C41.06058594 170.31941406 41.12117187 165.63882813 41.18359375 160.81640625 C41.22406831 157.8587143 41.26483139 154.90103202 41.30664062 151.94335938 C41.37303649 147.24441735 41.43833882 142.54547732 41.49731445 137.84643555 C41.54490561 134.05979158 41.59724624 130.27324084 41.65294075 126.48670769 C41.67338818 125.03898362 41.69209724 123.59123397 41.70907402 122.14346504 C41.73306508 120.12235841 41.76370075 118.1013339 41.79467773 116.08032227 C41.81022202 114.92782486 41.8257663 113.77532745 41.84178162 112.58790588 C42 110 42 110 43 109 C47.33357013 107.72920019 50.68785317 107.58856325 55 109 C58.76016456 113.27740513 61.10356144 118.11110406 63.60595703 123.20117188 C65.6471649 127.29931671 67.84322568 131.30969657 70.02734375 135.33300781 C71.82180266 138.64215496 73.59700669 141.96114506 75.37109375 145.28125 C80.74414923 155.28413929 86.38017255 165.1340807 92 175 C106.19 175 120.38 175 135 175 C130.43904666 165.75082292 130.43904666 165.75082292 125.44140625 156.8359375 C124.81500244 155.78865479 124.18859863 154.74137207 123.54321289 153.66235352 C122.88957764 152.57752686 122.23594238 151.4927002 121.5625 150.375 C120.1536938 148.01844917 118.74872452 145.65961804 117.34375 143.30078125 C116.98753067 142.70343674 116.63131134 142.10609222 116.26429749 141.49064636 C112.6594865 135.44090723 109.09300558 129.36928727 105.55905151 123.27789307 C104.57954278 121.59183623 103.59462704 119.90892431 102.60961914 118.22607422 C102.01785889 117.20400879 101.42609863 116.18194336 100.81640625 115.12890625 C100.29506104 114.23244385 99.77371582 113.33598145 99.23657227 112.41235352 C98.12338453 110.24070337 97.45989832 108.38405468 97 106 C97.83402344 105.63648438 98.66804687 105.27296875 99.52734375 104.8984375 C114.08905827 98.39320421 125.51316031 91.01235053 132.02734375 75.8359375 C137.21282809 60.7168145 136.65853734 44.71886431 129.6796875 30.265625 C122.58834917 17.47796572 111.55962271 9.71131341 97.625 5.625 C67.11922593 -2.43974487 34.55380106 3 3 3 Z " fill="#FFFFFF" transform="translate(514,452)"/>
<path d="M0 0 C17.16 0 34.32 0 52 0 C53.21171875 3.40441406 54.4234375 6.80882812 55.671875 10.31640625 C64.33378021 34.63337061 73.03772266 58.93358713 81.875 83.1875 C82.68764777 85.41924666 83.50022878 87.65101763 84.31274414 89.8828125 C84.720103 91.00169861 85.12746185 92.12058472 85.54716492 93.27337646 C86.16383781 94.9672348 86.16383781 94.9672348 86.79296875 96.6953125 C87.41272331 98.39763031 87.41272331 98.39763031 88.04499817 100.13433838 C89.13189432 103.12000022 90.21868128 106.10570176 91.30535126 109.09144592 C91.77923688 110.39345121 92.25316126 111.69544239 92.72711945 112.99742126 C95.80409601 121.45020606 98.87713192 129.9043976 101.94029617 138.36219883 C103.17985799 141.78448907 104.4212004 145.20610692 105.66717529 148.62606812 C107.04812027 152.41663778 108.42088521 156.21011995 109.79296875 160.00390625 C110.20549393 161.13251068 110.6180191 162.26111511 111.04304504 163.42391968 C111.6079792 164.99213974 111.6079792 164.99213974 112.18432617 166.59204102 C112.67675056 167.94870628 112.67675056 167.94870628 113.17912292 169.33277893 C114 172 114 172 115 178 C99.82 178 84.64 178 69 178 C64.9278537 167.81963425 61.46730763 157.4019229 58 147 C25.825 146.505 25.825 146.505 -7 146 C-7.99 149.63 -8.98 153.26 -10 157 C-12.31 163.93 -14.62 170.86 -17 178 C-32.18 178 -47.36 178 -63 178 C-62.30625434 173.14378041 -61.74628319 169.77161789 -60.13671875 165.3515625 C-59.75052872 164.28064865 -59.36433868 163.2097348 -58.96644592 162.10636902 C-58.54439377 160.95751724 -58.12234161 159.80866547 -57.6875 158.625 C-57.24703842 157.40931839 -56.80657684 156.19363678 -56.35276794 154.94111633 C-55.15818772 151.64423669 -53.95542622 148.35039695 -52.75117111 145.05704117 C-51.48542873 141.5908746 -50.22753393 138.12186298 -48.96899414 134.65307617 C-46.93489836 129.04914693 -44.89691003 123.4466501 -42.85595703 117.84521484 C-40.3927646 111.08397442 -37.9404038 104.31887389 -35.49609375 97.55078125 C-35.15366135 96.60261536 -34.81122894 95.65444946 -34.4584198 94.67755127 C-33.78352886 92.80862871 -33.10867772 90.93969178 -32.43386841 89.07073975 C-30.75764392 84.43045913 -29.07797218 79.79142706 -27.3984375 75.15234375 C-24.77888026 67.91630387 -22.16072424 60.67975881 -19.54409313 53.44266033 C-17.60159366 48.07013651 -15.65849298 42.69783037 -13.71500111 37.32566547 C-12.52677809 34.04112334 -11.33883553 30.75648041 -10.15158081 27.47158813 C-8.83244886 23.82186929 -7.51197896 20.1726353 -6.19140625 16.5234375 C-5.79639923 15.4299147 -5.40139221 14.33639191 -4.99441528 13.20973206 C-4.62831146 12.19869919 -4.26220764 11.18766632 -3.88500977 10.14599609 C-3.56766373 9.26849701 -3.25031769 8.39099792 -2.9233551 7.48690796 C-1.99083078 4.97530419 -0.99500512 2.4875128 0 0 Z M2 3 C0.58332031 6.94710938 -0.83335938 10.89421875 -2.29296875 14.9609375 C-11.69339418 41.14444229 -21.10252384 67.32466583 -30.57769775 93.48123169 C-31.87108767 97.05169982 -33.16384503 100.62239653 -34.45654297 104.19311523 C-38.23934721 114.63906977 -42.02768615 125.08293212 -45.83502197 135.51997375 C-47.44981851 139.94805783 -49.06120834 144.37737751 -50.67218018 148.80685425 C-51.42572408 150.87564142 -52.18102316 152.94379022 -52.93817139 155.01126099 C-53.96954361 157.82759358 -54.99517676 160.64595264 -56.01953125 163.46484375 C-56.3246312 164.29305634 -56.62973114 165.12126892 -56.94407654 165.97457886 C-58.53776227 170.37443019 -58.53776227 170.37443019 -59 175 C-46.13 175 -33.26 175 -20 175 C-16.91833528 167.37743997 -16.91833528 167.37743997 -14.11328125 159.68359375 C-13.81486328 158.81798828 -13.51644531 157.95238281 -13.20898438 157.06054688 C-12.59934372 155.27678348 -11.98997895 153.49292578 -11.38085938 151.70898438 C-11.08630859 150.85498047 -10.79175781 150.00097656 -10.48828125 149.12109375 C-10.09443237 147.96758423 -10.09443237 147.96758423 -9.69262695 146.79077148 C-9 145 -9 145 -8 144 C-5.91380978 143.90582227 -3.82439523 143.88257122 -1.73608398 143.88647461 C-0.7556311 143.88625557 -0.7556311 143.88625557 0.24462891 143.8860321 C2.41442128 143.88673117 4.58412879 143.89452322 6.75390625 143.90234375 C8.25463311 143.90420795 9.75536057 143.90563184 11.25608826 143.90663147 C15.21318226 143.91045648 19.17023978 143.9202866 23.12731934 143.93133545 C27.16234849 143.94154994 31.19738353 143.94612917 35.23242188 143.95117188 C43.15496469 143.96190889 51.07747781 143.9789851 59 144 C61.1927486 148.84934144 63.34000099 153.67966942 65.140625 158.69140625 C65.45547852 159.56224854 65.77033203 160.43309082 66.09472656 161.33032227 C66.4759668 162.39694092 66.85720703 163.46355957 67.25 164.5625 C68.4875 168.006875 69.725 171.45125 71 175 C84.2 175 97.4 175 111 175 C110.27968823 171.39844116 109.52430821 168.39571749 108.30444336 164.98999023 C107.78041679 163.51914474 107.78041679 163.51914474 107.24580383 162.01858521 C106.86433701 160.95928802 106.48287018 159.89999084 106.08984375 158.80859375 C105.49184212 157.13553665 105.49184212 157.13553665 104.88175964 155.42868042 C103.79685106 152.39617714 102.70874719 149.36484535 101.61899567 146.33407974 C100.70259223 143.78375949 99.78876305 141.23251988 98.87487793 138.68129635 C92.71798712 121.49532674 86.51221984 104.3271917 80.25097656 87.17895508 C76.46629993 76.80896995 72.71078766 66.4288517 68.9812851 56.038908 C68.22473471 53.93157071 67.4677049 51.82440629 66.71051025 49.71730042 C66.20593053 48.31308058 65.70135289 46.90886 65.19677734 45.50463867 C64.94704414 44.80966939 64.69731094 44.11470011 64.44001007 43.39867115 C62.95267356 39.25852332 61.46869328 35.11719085 59.98704243 30.97500515 C59.28525381 29.01487805 58.58176951 27.05536941 57.87754822 25.09611511 C57.01065461 22.68409068 56.14653191 20.27106792 55.28565979 17.85688782 C54.70182777 16.23607552 54.70182777 16.23607552 54.10620117 14.58251953 C53.77029465 13.64489777 53.43438812 12.707276 53.08830261 11.74124146 C51.90136401 8.75155341 50.43854495 5.87708989 49 3 C33.49 3 17.98 3 2 3 Z " fill="#FFFFFF" transform="translate(1428,452)"/>
<path d="M0 0 C17.16 0 34.32 0 52 0 C53.21171875 3.40441406 54.4234375 6.80882812 55.671875 10.31640625 C64.33378021 34.63337061 73.03772266 58.93358713 81.875 83.1875 C82.68764777 85.41924666 83.50022878 87.65101763 84.31274414 89.8828125 C84.720103 91.00169861 85.12746185 92.12058472 85.54716492 93.27337646 C86.16383781 94.9672348 86.16383781 94.9672348 86.79296875 96.6953125 C87.41272331 98.39763031 87.41272331 98.39763031 88.04499817 100.13433838 C89.13189432 103.12000022 90.21868128 106.10570176 91.30535126 109.09144592 C91.77923688 110.39345121 92.25316126 111.69544239 92.72711945 112.99742126 C95.80409601 121.45020606 98.87713192 129.9043976 101.94029617 138.36219883 C103.17985799 141.78448907 104.4212004 145.20610692 105.66717529 148.62606812 C107.04812027 152.41663778 108.42088521 156.21011995 109.79296875 160.00390625 C110.20549393 161.13251068 110.6180191 162.26111511 111.04304504 163.42391968 C111.6079792 164.99213974 111.6079792 164.99213974 112.18432617 166.59204102 C112.67675056 167.94870628 112.67675056 167.94870628 113.17912292 169.33277893 C114 172 114 172 115 178 C99.82 178 84.64 178 69 178 C64.9278537 167.81963425 61.46730763 157.4019229 58 147 C25.825 146.505 25.825 146.505 -7 146 C-7.99 149.63 -8.98 153.26 -10 157 C-12.31 163.93 -14.62 170.86 -17 178 C-32.18 178 -47.36 178 -63 178 C-62.30625434 173.14378041 -61.74628319 169.77161789 -60.13671875 165.3515625 C-59.75052872 164.28064865 -59.36433868 163.2097348 -58.96644592 162.10636902 C-58.54439377 160.95751724 -58.12234161 159.80866547 -57.6875 158.625 C-57.24703842 157.40931839 -56.80657684 156.19363678 -56.35276794 154.94111633 C-55.15818772 151.64423669 -53.95542622 148.35039695 -52.75117111 145.05704117 C-51.48542873 141.5908746 -50.22753393 138.12186298 -48.96899414 134.65307617 C-46.93489836 129.04914693 -44.89691003 123.4466501 -42.85595703 117.84521484 C-40.3927646 111.08397442 -37.9404038 104.31887389 -35.49609375 97.55078125 C-35.15366135 96.60261536 -34.81122894 95.65444946 -34.4584198 94.67755127 C-33.78352886 92.80862871 -33.10867772 90.93969178 -32.43386841 89.07073975 C-30.75764392 84.43045913 -29.07797218 79.79142706 -27.3984375 75.15234375 C-24.77888026 67.91630387 -22.16072424 60.67975881 -19.54409313 53.44266033 C-17.60159366 48.07013651 -15.65849298 42.69783037 -13.71500111 37.32566547 C-12.52677809 34.04112334 -11.33883553 30.75648041 -10.15158081 27.47158813 C-8.83244886 23.82186929 -7.51197896 20.1726353 -6.19140625 16.5234375 C-5.79639923 15.4299147 -5.40139221 14.33639191 -4.99441528 13.20973206 C-4.62831146 12.19869919 -4.26220764 11.18766632 -3.88500977 10.14599609 C-3.56766373 9.26849701 -3.25031769 8.39099792 -2.9233551 7.48690796 C-1.99083078 4.97530419 -0.99500512 2.4875128 0 0 Z M2 3 C0.58332031 6.94710938 -0.83335937 10.89421875 -2.29296875 14.9609375 C-11.69339418 41.14444229 -21.10252384 67.32466583 -30.57769775 93.48123169 C-31.87108767 97.05169982 -33.16384503 100.62239653 -34.45654297 104.19311523 C-38.23934721 114.63906977 -42.02768615 125.08293212 -45.83502197 135.51997375 C-47.44981851 139.94805783 -49.06120834 144.37737751 -50.67218018 148.80685425 C-51.42572408 150.87564142 -52.18102316 152.94379022 -52.93817139 155.01126099 C-53.96954361 157.82759358 -54.99517676 160.64595264 -56.01953125 163.46484375 C-56.3246312 164.29305634 -56.62973114 165.12126892 -56.94407654 165.97457886 C-58.53776227 170.37443019 -58.53776227 170.37443019 -59 175 C-46.13 175 -33.26 175 -20 175 C-16.91833528 167.37743997 -16.91833528 167.37743997 -14.11328125 159.68359375 C-13.81486328 158.81798828 -13.51644531 157.95238281 -13.20898438 157.06054688 C-12.59934372 155.27678348 -11.98997895 153.49292578 -11.38085938 151.70898438 C-11.08630859 150.85498047 -10.79175781 150.00097656 -10.48828125 149.12109375 C-10.09443237 147.96758423 -10.09443237 147.96758423 -9.69262695 146.79077148 C-9 145 -9 145 -8 144 C-5.91380978 143.90582227 -3.82439523 143.88257122 -1.73608398 143.88647461 C-0.7556311 143.88625557 -0.7556311 143.88625557 0.24462891 143.8860321 C2.41442128 143.88673117 4.58412879 143.89452322 6.75390625 143.90234375 C8.25463311 143.90420795 9.75536057 143.90563184 11.25608826 143.90663147 C15.21318226 143.91045648 19.17023978 143.9202866 23.12731934 143.93133545 C27.16234849 143.94154994 31.19738353 143.94612917 35.23242188 143.95117188 C43.15496469 143.96190889 51.07747781 143.9789851 59 144 C61.1927486 148.84934144 63.34000099 153.67966942 65.140625 158.69140625 C65.45547852 159.56224854 65.77033203 160.43309082 66.09472656 161.33032227 C66.4759668 162.39694092 66.85720703 163.46355957 67.25 164.5625 C68.4875 168.006875 69.725 171.45125 71 175 C84.2 175 97.4 175 111 175 C110.27968823 171.39844116 109.52430821 168.39571749 108.30444336 164.98999023 C107.78041679 163.51914474 107.78041679 163.51914474 107.24580383 162.01858521 C106.86433701 160.95928802 106.48287018 159.89999084 106.08984375 158.80859375 C105.49184212 157.13553665 105.49184212 157.13553665 104.88175964 155.42868042 C103.79685106 152.39617714 102.70874719 149.36484535 101.61899567 146.33407974 C100.70259223 143.78375949 99.78876305 141.23251988 98.87487793 138.68129635 C92.71798712 121.49532674 86.51221984 104.3271917 80.25097656 87.17895508 C76.46629993 76.80896995 72.71078766 66.4288517 68.9812851 56.038908 C68.22473471 53.93157071 67.4677049 51.82440629 66.71051025 49.71730042 C66.20593053 48.31308058 65.70135289 46.90886 65.19677734 45.50463867 C64.94704414 44.80966939 64.69731094 44.11470011 64.44001007 43.39867115 C62.95267356 39.25852332 61.46869328 35.11719085 59.98704243 30.97500515 C59.28525381 29.01487805 58.58176951 27.05536941 57.87754822 25.09611511 C57.01065461 22.68409068 56.14653191 20.27106792 55.28565979 17.85688782 C54.70182777 16.23607552 54.70182777 16.23607552 54.10620117 14.58251953 C53.77029465 13.64489777 53.43438812 12.707276 53.08830261 11.74124146 C51.90136401 8.75155341 50.43854495 5.87708989 49 3 C33.49 3 17.98 3 2 3 Z " fill="#FFFFFF" transform="translate(381,452)"/>
<path d="M0 0 C102.8150289 0 102.8150289 0 121.1875 17.02734375 C131.75218505 28.09225063 135.89250191 41.96433059 136.375 57.0625 C135.87732431 71.93304952 131.10561176 85.92181808 121 97 C106.93754458 108.94552665 91.33296253 114.2171588 73.00390625 114.09765625 C71.89396301 114.09614563 71.89396301 114.09614563 70.76159668 114.09460449 C68.02854842 114.08941897 65.29552246 114.07545815 62.5625 114.0625 C56.436875 114.041875 50.31125 114.02125 44 114 C44 135.12 44 156.24 44 178 C29.48 178 14.96 178 0 178 C0 119.26 0 60.52 0 0 Z M3 3 C3 59.76 3 116.52 3 175 C15.54 175 28.08 175 41 175 C41.09087891 168.30396484 41.09087891 168.30396484 41.18359375 161.47265625 C41.23452916 157.92262147 41.28645074 154.37260417 41.33904266 150.82259369 C41.39436399 147.06999149 41.4479303 143.31738269 41.49731445 139.56469727 C41.54490835 135.95311414 41.59724906 132.34162868 41.65294075 128.73016167 C41.67338694 127.34942481 41.69209622 125.96866114 41.70907402 124.58787727 C41.7330678 122.66016686 41.76370264 120.73254251 41.79467773 118.80493164 C41.81022202 117.70572891 41.8257663 116.60652618 41.84178162 115.47401428 C42 113 42 113 43 112 C45.71896895 111.87647135 48.41632781 111.81376715 51.13671875 111.7890625 C52.84701385 111.76093704 54.55730014 111.73227241 56.26757812 111.703125 C58.95710458 111.66228989 61.64647674 111.62540838 64.33618164 111.59863281 C85.2015397 111.37299829 103.51027579 108.73264785 119.296875 93.83203125 C129.00416833 83.52259379 132.94351029 71.0703166 133.375 57 C132.94576819 43.55073671 129.14113069 29.61153822 119.74609375 19.58203125 C88.91255174 -8.35439943 39.23689007 3 3 3 Z " fill="#FFFFFF" transform="translate(1719,452)"/>
<path d="M0 0 C102.8150289 0 102.8150289 0 121.1875 17.02734375 C131.75218505 28.09225063 135.89250191 41.96433059 136.375 57.0625 C135.87732431 71.93304952 131.10561176 85.92181808 121 97 C106.93754458 108.94552665 91.33296253 114.2171588 73.00390625 114.09765625 C71.89396301 114.09614563 71.89396301 114.09614563 70.76159668 114.09460449 C68.02854842 114.08941897 65.29552246 114.07545815 62.5625 114.0625 C56.436875 114.041875 50.31125 114.02125 44 114 C44 135.12 44 156.24 44 178 C29.48 178 14.96 178 0 178 C0 119.26 0 60.52 0 0 Z M3 3 C3 59.76 3 116.52 3 175 C15.54 175 28.08 175 41 175 C41.09087891 168.30396484 41.09087891 168.30396484 41.18359375 161.47265625 C41.23452916 157.92262147 41.28645074 154.37260417 41.33904266 150.82259369 C41.39436399 147.06999149 41.4479303 143.31738269 41.49731445 139.56469727 C41.54490835 135.95311414 41.59724906 132.34162868 41.65294075 128.73016167 C41.67338694 127.34942481 41.69209622 125.96866114 41.70907402 124.58787727 C41.7330678 122.66016686 41.76370264 120.73254251 41.79467773 118.80493164 C41.81022202 117.70572891 41.8257663 116.60652618 41.84178162 115.47401428 C42 113 42 113 43 112 C45.71896895 111.87647135 48.41632781 111.81376715 51.13671875 111.7890625 C52.84701385 111.76093704 54.55730014 111.73227241 56.26757812 111.703125 C58.95710458 111.66228989 61.64647674 111.62540838 64.33618164 111.59863281 C85.2015397 111.37299829 103.51027579 108.73264785 119.296875 93.83203125 C129.00416833 83.52259379 132.94351029 71.0703166 133.375 57 C132.94576819 43.55073671 129.14113069 29.61153822 119.74609375 19.58203125 C88.91255174 -8.35439943 39.23689007 3 3 3 Z " fill="#FFFFFF" transform="translate(1562,452)"/>
<path d="M0 0 C14.52 0 29.04 0 44 0 C44 47.19 44 94.38 44 143 C62.81 143 81.62 143 101 143 C101 154.55 101 166.1 101 178 C67.67 178 34.34 178 0 178 C0 119.26 0 60.52 0 0 Z M3 3 C3 59.76 3 116.52 3 175 C34.35 175 65.7 175 98 175 C98 165.43 98 155.86 98 146 C92.06193359 145.90912109 92.06193359 145.90912109 86.00390625 145.81640625 C82.18804908 145.75467453 78.37222329 145.69126296 74.55639648 145.62768555 C71.89561735 145.5842582 69.23480893 145.5425891 66.57397461 145.50268555 C62.75886185 145.44517128 58.94389758 145.38142332 55.12890625 145.31640625 C53.93100967 145.29969376 52.7331131 145.28298126 51.49891663 145.26576233 C50.3978508 145.24581711 49.29678497 145.22587189 48.16235352 145.20532227 C47.18750504 145.18977798 46.21265656 145.1742337 45.20826721 145.15821838 C43 145 43 145 42 144 C41.89134401 142.17808843 41.85311773 140.35195374 41.84178162 138.52684021 C41.82709839 136.74518463 41.82709839 136.74518463 41.81211853 134.92753601 C41.80348534 132.95524773 41.80348534 132.95524773 41.79467773 130.94311523 C41.78510445 129.55381983 41.7750947 128.16452738 41.76467896 126.77523804 C41.73756423 122.99237884 41.71659036 119.20950708 41.69667697 115.42660403 C41.67485778 111.47741815 41.64744926 107.52827128 41.62062073 103.57911682 C41.57063867 96.09577754 41.52572037 88.61241667 41.48259836 81.12903506 C41.433273 72.61161497 41.3783375 64.094234 41.32291877 55.57685173 C41.20901412 38.05126913 41.10293436 20.5256507 41 3 C28.46 3 15.92 3 3 3 Z " fill="#FFFFFF" transform="translate(72,452)"/>
<path d="M0 0 C14.52 0 29.04 0 44 0 C44 58.74 44 117.48 44 178 C29.48 178 14.96 178 0 178 C0 119.26 0 60.52 0 0 Z M3 3 C3 59.76 3 116.52 3 175 C15.54 175 28.08 175 41 175 C41 118.24 41 61.48 41 3 C28.46 3 15.92 3 3 3 Z " fill="#FFFFFF" transform="translate(867,452)"/>
<path d="M0 0 C1.96173096 0.22471619 1.96173096 0.22471619 4 1 C5.27442117 3.69106651 6.2495988 6.19112802 7.171875 9.00390625 C7.45581116 9.82634323 7.73974731 10.64878021 8.0322876 11.49613953 C8.95431522 14.17972867 9.85272134 16.8705449 10.75 19.5625 C11.37251103 21.39656213 11.99621089 23.23022118 12.62109375 25.06347656 C13.85684922 28.69656376 15.08316247 32.33264178 16.30273438 35.97119141 C17.75072177 40.2807502 19.24639229 44.57052642 20.765625 48.85546875 C21.51079081 50.9868484 22.25561842 53.11834633 23 55.25 C23.34385742 56.20463135 23.68771484 57.1592627 24.04199219 58.14282227 C24.33750977 59.00834717 24.63302734 59.87387207 24.9375 60.765625 C25.19402344 61.49555664 25.45054688 62.22548828 25.71484375 62.97753906 C26.08130623 65.57666169 25.22846401 66.73865676 24 69 C17.60962769 69.02527062 11.21926817 69.04283317 4.82885742 69.05493164 C2.65307127 69.05997308 0.47728853 69.06680607 -1.69848633 69.07543945 C-4.81853067 69.08751338 -7.93853038 69.09323005 -11.05859375 69.09765625 C-12.52733192 69.10539818 -12.52733192 69.10539818 -14.02574158 69.11329651 C-14.92659988 69.11337204 -15.82745819 69.11344757 -16.75561523 69.11352539 C-17.95141457 69.11685631 -17.95141457 69.11685631 -19.17137146 69.12025452 C-21 69 -21 69 -22 68 C-21.61969407 60.37938795 -19.03068165 53.51407635 -16.5625 46.34765625 C-16.11733301 45.03889069 -15.67276273 43.72992203 -15.22875977 42.42076111 C-14.30206126 39.69350972 -13.37035465 36.9680434 -12.43457031 34.24389648 C-11.23343371 30.74694502 -10.04175708 27.24686286 -8.85334778 23.74556828 C-7.93797668 21.05020861 -7.01936587 18.35596308 -6.09957886 15.66210747 C-5.65878528 14.37087512 -5.21861828 13.07942871 -4.77908325 11.78776741 C-4.1669807 9.99166162 -3.55040188 8.19708316 -2.93359375 6.40258789 C-2.58353271 5.38080948 -2.23347168 4.35903107 -1.87280273 3.30628967 C-1 1 -1 1 0 0 Z M1 4 C-1.6111984 11.78731151 -4.21917958 19.5756897 -6.82302856 27.36546135 C-8.03212264 30.98229402 -9.24233324 34.59874513 -10.45507812 38.21435547 C-11.62479069 41.70180674 -12.79159295 45.19021907 -13.95635986 48.6793251 C-14.40187462 50.01216607 -14.84844763 51.34465377 -15.29608154 52.67678452 C-15.92151893 54.53863801 -16.54289073 56.40185575 -17.1640625 58.26513672 C-17.51936035 59.32658905 -17.8746582 60.38804138 -18.24072266 61.48165894 C-19.09622144 63.88075804 -19.09622144 63.88075804 -19 66 C-5.14 66 8.72 66 23 66 C16.12214941 45.28739246 9.2132105 24.59809266 2 4 C1.67 4 1.34 4 1 4 Z " fill="#FFFFFF" transform="translate(1452,498)"/>
<path d="M0 0 C1.96173096 0.22471619 1.96173096 0.22471619 4 1 C5.27442117 3.69106651 6.2495988 6.19112802 7.171875 9.00390625 C7.45581116 9.82634323 7.73974731 10.64878021 8.0322876 11.49613953 C8.95431522 14.17972867 9.85272134 16.8705449 10.75 19.5625 C11.37251103 21.39656213 11.99621089 23.23022118 12.62109375 25.06347656 C13.85684922 28.69656376 15.08316247 32.33264178 16.30273438 35.97119141 C17.75072177 40.2807502 19.24639229 44.57052642 20.765625 48.85546875 C21.51079081 50.9868484 22.25561842 53.11834633 23 55.25 C23.34385742 56.20463135 23.68771484 57.1592627 24.04199219 58.14282227 C24.33750977 59.00834717 24.63302734 59.87387207 24.9375 60.765625 C25.19402344 61.49555664 25.45054687 62.22548828 25.71484375 62.97753906 C26.08130623 65.57666169 25.22846401 66.73865676 24 69 C17.60962769 69.02527062 11.21926817 69.04283317 4.82885742 69.05493164 C2.65307127 69.05997308 0.47728853 69.06680607 -1.69848633 69.07543945 C-4.81853067 69.08751338 -7.93853038 69.09323005 -11.05859375 69.09765625 C-12.52733192 69.10539818 -12.52733192 69.10539818 -14.02574158 69.11329651 C-14.92659988 69.11337204 -15.82745819 69.11344757 -16.75561523 69.11352539 C-17.95141457 69.11685631 -17.95141457 69.11685631 -19.17137146 69.12025452 C-21 69 -21 69 -22 68 C-21.61969407 60.37938795 -19.03068165 53.51407635 -16.5625 46.34765625 C-16.11733301 45.03889069 -15.67276273 43.72992203 -15.22875977 42.42076111 C-14.30206126 39.69350972 -13.37035465 36.9680434 -12.43457031 34.24389648 C-11.23343371 30.74694502 -10.04175708 27.24686286 -8.85334778 23.74556828 C-7.93797668 21.05020861 -7.01936587 18.35596308 -6.09957886 15.66210747 C-5.65878528 14.37087512 -5.21861828 13.07942871 -4.77908325 11.78776741 C-4.1669807 9.99166162 -3.55040188 8.19708316 -2.93359375 6.40258789 C-2.58353271 5.38080948 -2.23347168 4.35903107 -1.87280273 3.30628967 C-1 1 -1 1 0 0 Z M1 4 C-1.6111984 11.78731151 -4.21917958 19.5756897 -6.82302856 27.36546135 C-8.03212264 30.98229402 -9.24233324 34.59874513 -10.45507812 38.21435547 C-11.62479069 41.70180674 -12.79159295 45.19021907 -13.95635986 48.6793251 C-14.40187462 50.01216607 -14.84844763 51.34465377 -15.29608154 52.67678452 C-15.92151893 54.53863801 -16.54289073 56.40185575 -17.1640625 58.26513672 C-17.51936035 59.32658905 -17.8746582 60.38804138 -18.24072266 61.48165894 C-19.09622144 63.88075804 -19.09622144 63.88075804 -19 66 C-5.14 66 8.72 66 23 66 C16.12214941 45.28739246 9.2132105 24.59809266 2 4 C1.67 4 1.34 4 1 4 Z " fill="#FFFFFF" transform="translate(405,498)"/>
<path d="M0 0 C0.79849365 -0.00807175 1.5969873 -0.01614349 2.41967773 -0.02445984 C4.11781633 -0.03832494 5.81598309 -0.04903618 7.51416016 -0.05688477 C10.08682174 -0.07396528 12.65815325 -0.11781031 15.23046875 -0.16210938 C33.28280357 -0.33540033 33.28280357 -0.33540033 39.97851562 5.98901367 C46.25594263 12.6737768 46.65708283 19.54545084 46.4375 28.33984375 C45.9020443 35.01965357 43.97371812 38.38956313 39.3125 43.05078125 C32.8979011 47.45295697 28.00548418 48.6886242 20.3828125 48.56640625 C19.16934647 48.5635965 19.16934647 48.5635965 17.93136597 48.56072998 C16.23545154 48.55404823 14.5395515 48.54021176 12.84375 48.51953125 C10.23683496 48.48812264 7.6305238 48.47853027 5.0234375 48.47265625 C3.37238839 48.46349542 1.72134546 48.4531226 0.0703125 48.44140625 C-1.10300125 48.43503143 -1.10300125 48.43503143 -2.30001831 48.42852783 C-7.75777352 48.35550773 -7.75777352 48.35550773 -8.875 47.23828125 C-8.97313987 45.80087772 -9.0029828 44.35871798 -9.00439453 42.91796875 C-9.00754669 42.00031738 -9.01069885 41.08266602 -9.01394653 40.13720703 C-9.0119223 39.13931152 -9.00989807 38.14141602 -9.0078125 37.11328125 C-9.00876923 36.0960498 -9.00972595 35.07881836 -9.01071167 34.03076172 C-9.01139361 31.87532489 -9.00953835 29.71988603 -9.00537109 27.56445312 C-9.00002305 24.25255754 -9.00531563 20.94079758 -9.01171875 17.62890625 C-9.01105797 15.54036428 -9.00977681 13.4518224 -9.0078125 11.36328125 C-9.00983673 10.36538574 -9.01186096 9.36749023 -9.01394653 8.33935547 C-9.01079437 7.4217041 -9.00764221 6.50405273 -9.00439453 5.55859375 C-9.00359894 4.74664551 -9.00280334 3.93469727 -9.00198364 3.09814453 C-8.68986501 -1.47329451 -3.5239849 0.03354848 0 0 Z M-5.875 3.23828125 C-5.875 17.09828125 -5.875 30.95828125 -5.875 45.23828125 C-0.47125 45.34140625 4.9325 45.44453125 10.5 45.55078125 C12.18399902 45.59630127 13.86799805 45.64182129 15.60302734 45.6887207 C24.01135304 45.82117045 31.13480768 45.57455671 38.125 40.23828125 C43.45515535 34.52090393 43.46774253 28.21390747 43.40625 20.765625 C42.92510925 14.73131805 40.97594497 11.08922622 36.75 6.86328125 C31.35952878 3.52632288 26.33040512 2.95236481 20.1015625 3.04296875 C19.43922607 3.04498291 18.77688965 3.04699707 18.09448242 3.04907227 C15.64625005 3.0594497 13.19811726 3.08737161 10.75 3.11328125 C5.26375 3.15453125 -0.2225 3.19578125 -5.875 3.23828125 Z " fill="#FFFFFF" transform="translate(563.875,485.76171875)"/>
<path d="M0 0 C0.73190552 -0.00807175 1.46381104 -0.01614349 2.21789551 -0.02445984 C3.77479675 -0.03832456 5.33172869 -0.04903598 6.88867188 -0.05688477 C9.24410213 -0.07394962 11.59807344 -0.11779123 13.953125 -0.16210938 C23.5569892 -0.26160478 31.02475896 0.30900605 38.65625 6.61328125 C44.5151414 13.85073534 45.62127255 21.17803803 44.78125 30.23828125 C43.07664511 37.41610545 39.99388988 42.23239355 33.78125 46.23828125 C26.44008654 49.99838936 18.08376387 49.42456751 10.04833984 49.42358398 C8.02290428 49.42579034 5.99799713 49.44404227 3.97265625 49.46289062 C2.69777344 49.46482422 1.42289063 49.46675781 0.109375 49.46875 C-1.0569043 49.47285889 -2.22318359 49.47696777 -3.42480469 49.48120117 C-6.21875 49.23828125 -6.21875 49.23828125 -8.21875 47.23828125 C-8.46598816 45.25816345 -8.46598816 45.25816345 -8.46166992 42.80444336 C-8.46474655 41.88686752 -8.46782318 40.96929169 -8.47099304 40.02391052 C-8.46380753 39.0311763 -8.45662201 38.03844208 -8.44921875 37.015625 C-8.44876053 35.9998085 -8.44830231 34.983992 -8.4478302 33.93739319 C-8.44480596 31.78792148 -8.43691456 29.638452 -8.42456055 27.48901367 C-8.40630624 24.18595683 -8.4040508 20.88318013 -8.40429688 17.58007812 C-8.39938179 15.49609131 -8.39355351 13.4121064 -8.38671875 11.328125 C-8.38504951 9.83598732 -8.38504951 9.83598732 -8.38334656 8.31370544 C-8.37696671 7.39928177 -8.37058685 6.48485809 -8.36401367 5.54272461 C-8.36020187 4.73379257 -8.35639008 3.92486053 -8.35246277 3.09141541 C-8.03443124 -1.31620476 -3.4355307 0.03572792 0 0 Z M-5.21875 3.23828125 C-5.21875 17.42828125 -5.21875 31.61828125 -5.21875 46.23828125 C1.401875 46.33109375 1.401875 46.33109375 8.15625 46.42578125 C9.52700684 46.45309326 10.89776367 46.48040527 12.31005859 46.50854492 C20.45543845 46.56342974 28.47562747 46.47439818 35.21875 41.40625 C40.86941456 34.24403267 42.65733907 28.36656414 41.78125 19.23828125 C40.67104651 13.52577967 38.2192833 10.15859808 33.79296875 6.46484375 C28.83890775 3.44430947 24.12401293 2.99577908 18.4140625 3.04296875 C17.17027832 3.04796387 15.92649414 3.05295898 14.64501953 3.05810547 C13.08122559 3.07631348 11.51743164 3.09452148 9.90625 3.11328125 C2.419375 3.17515625 2.419375 3.17515625 -5.21875 3.23828125 Z " fill="#FFFFFF" transform="translate(1768.21875,484.76171875)"/>
<path d="M0 0 C0.73190552 -0.00807175 1.46381104 -0.01614349 2.21789551 -0.02445984 C3.77479675 -0.03832456 5.33172869 -0.04903598 6.88867188 -0.05688477 C9.24410213 -0.07394962 11.59807344 -0.11779123 13.953125 -0.16210938 C23.5569892 -0.26160478 31.02475896 0.30900605 38.65625 6.61328125 C44.5151414 13.85073534 45.62127255 21.17803803 44.78125 30.23828125 C43.07664511 37.41610545 39.99388988 42.23239355 33.78125 46.23828125 C26.44008654 49.99838936 18.08376387 49.42456751 10.04833984 49.42358398 C8.02290428 49.42579034 5.99799713 49.44404227 3.97265625 49.46289062 C2.69777344 49.46482422 1.42289063 49.46675781 0.109375 49.46875 C-1.0569043 49.47285889 -2.22318359 49.47696777 -3.42480469 49.48120117 C-6.21875 49.23828125 -6.21875 49.23828125 -8.21875 47.23828125 C-8.46598816 45.25816345 -8.46598816 45.25816345 -8.46166992 42.80444336 C-8.46474655 41.88686752 -8.46782318 40.96929169 -8.47099304 40.02391052 C-8.46380753 39.0311763 -8.45662201 38.03844208 -8.44921875 37.015625 C-8.44876053 35.9998085 -8.44830231 34.983992 -8.4478302 33.93739319 C-8.44480596 31.78792148 -8.43691456 29.638452 -8.42456055 27.48901367 C-8.40630624 24.18595683 -8.4040508 20.88318013 -8.40429688 17.58007812 C-8.39938179 15.49609131 -8.39355351 13.4121064 -8.38671875 11.328125 C-8.38504951 9.83598732 -8.38504951 9.83598732 -8.38334656 8.31370544 C-8.37696671 7.39928177 -8.37058685 6.48485809 -8.36401367 5.54272461 C-8.36020187 4.73379257 -8.35639008 3.92486053 -8.35246277 3.09141541 C-8.03443124 -1.31620476 -3.4355307 0.03572792 0 0 Z M-5.21875 3.23828125 C-5.21875 17.42828125 -5.21875 31.61828125 -5.21875 46.23828125 C1.401875 46.33109375 1.401875 46.33109375 8.15625 46.42578125 C9.52700684 46.45309326 10.89776367 46.48040527 12.31005859 46.50854492 C20.45543845 46.56342974 28.47562747 46.47439818 35.21875 41.40625 C40.86941456 34.24403267 42.65733907 28.36656414 41.78125 19.23828125 C40.67104651 13.52577967 38.2192833 10.15859808 33.79296875 6.46484375 C28.83890775 3.44430947 24.12401293 2.99577908 18.4140625 3.04296875 C17.17027832 3.04796387 15.92649414 3.05295898 14.64501953 3.05810547 C13.08122559 3.07631348 11.51743164 3.09452148 9.90625 3.11328125 C2.419375 3.17515625 2.419375 3.17515625 -5.21875 3.23828125 Z " fill="#FFFFFF" transform="translate(1611.21875,484.76171875)"/>
</svg>
