<svg xmlns="http://www.w3.org/2000/svg" xmlns:xlink="http://www.w3.org/1999/xlink" width="603" zoomAndPan="magnify" viewBox="0 0 452.25 213" height="284" preserveAspectRatio="xMidYMid meet" version="1.0"><defs><clipPath id="389bf10349"><path d="M 9 126 L 281 126 L 281 212.824219 L 9 212.824219 Z M 9 126 " clip-rule="nonzero"/></clipPath></defs><path stroke-linecap="butt" transform="matrix(0.383359, 0, 0, 0.383359, 8.178753, -1.99049)" fill="none" stroke-linejoin="miter" d="M 100.52229 74.633985 L 131.427178 74.633985 L 82.354333 218.999447 L 48.973386 218.999447 L 0.00243657 74.633985 L 30.907324 74.633985 L 58.062459 160.542032 C 59.580702 165.616425 61.139702 171.516171 62.74965 178.271839 C 64.369787 185.017317 65.368363 189.704507 65.765755 192.343599 C 66.489212 186.28082 68.955082 175.683694 73.173553 160.542032 Z M 145.937089 80.065012 C 145.937089 70.252481 151.398684 65.35131 162.332065 65.35131 C 173.255257 65.35131 178.716852 70.252481 178.716852 80.065012 C 178.716852 84.742012 177.351453 88.37968 174.620656 90.978013 C 171.889858 93.576347 167.793661 94.880609 162.332065 94.880609 C 151.398684 94.880609 145.937089 89.93868 145.937089 80.065012 Z M 177.341264 218.999447 L 147.220971 218.999447 L 147.220971 108.605925 L 177.341264 108.605925 Z M 243.889177 220.976218 C 230.917887 220.976218 220.738533 215.942584 213.330734 205.865124 C 205.922935 195.797855 202.224131 181.838179 202.224131 163.996287 C 202.224131 145.899657 205.984073 131.787138 213.524335 121.6893 C 221.064598 111.581272 231.447744 106.527258 244.683962 106.527258 C 258.57231 106.527258 269.169436 111.927716 276.475339 122.718444 L 277.463725 122.718444 C 275.945483 114.495482 275.191457 107.15901 275.191457 100.698839 L 275.191457 65.35131 L 305.403455 65.35131 L 305.403455 218.999447 L 282.303759 218.999447 L 276.475339 204.683137 L 275.191457 204.683137 C 268.344083 215.545191 257.90999 220.976218 243.889177 220.976218 Z M 254.455734 196.979842 C 262.15903 196.979842 267.804037 194.738142 271.390757 190.264932 C 274.977476 185.791722 276.933869 178.190322 277.270124 167.450543 L 277.270124 164.200078 C 277.270124 152.349638 275.436006 143.851558 271.788149 138.716028 C 268.130103 133.580498 262.189598 131.022922 253.966636 131.022922 C 247.251727 131.022922 242.03468 133.865805 238.315496 139.56176 C 234.586123 145.257715 232.731626 153.531625 232.731626 164.393679 C 232.731626 175.255734 234.606502 183.407369 238.356255 188.838396 C 242.116196 194.269423 247.475897 196.979842 254.455734 196.979842 Z M 335.615454 80.065012 C 335.615454 70.252481 341.07705 65.35131 352.010431 65.35131 C 362.933622 65.35131 368.395218 70.252481 368.395218 80.065012 C 368.395218 84.742012 367.029819 88.37968 364.299021 90.978013 C 361.568223 93.576347 357.472026 94.880609 352.010431 94.880609 C 341.07705 94.880609 335.615454 89.93868 335.615454 80.065012 Z M 367.019629 218.999447 L 336.899337 218.999447 L 336.899337 108.605925 L 367.019629 108.605925 Z M 422.603593 163.598895 C 422.603593 174.532276 424.396953 182.795996 427.993862 188.390056 C 431.580581 193.984116 437.41919 196.78624 445.519878 196.78624 C 453.549239 196.78624 459.32671 194.004495 462.842103 188.441004 C 466.367685 182.877513 468.130476 174.593413 468.130476 163.598895 C 468.130476 152.675704 466.347306 144.48331 462.801345 139.011525 C 459.245194 133.549929 453.416775 130.819131 445.316087 130.819131 C 437.286726 130.819131 431.499065 133.53974 427.942914 138.970767 C 424.386763 144.401794 422.603593 152.614566 422.603593 163.598895 Z M 498.933468 163.598895 C 498.933468 181.573251 494.19533 195.634822 484.719054 205.763229 C 475.242778 215.901825 462.037129 220.976218 445.122486 220.976218 C 434.52536 220.976218 425.171358 218.653002 417.08086 214.01676 C 408.980172 209.370328 402.76455 202.706366 398.413615 194.014684 C 394.072869 185.323003 391.902496 175.194596 391.902496 163.598895 C 391.902496 145.563402 396.599876 131.542589 406.015015 121.536457 C 415.430154 111.530324 428.666372 106.527258 445.713479 106.527258 C 456.310605 106.527258 465.664607 108.830095 473.755105 113.445958 C 481.855792 118.051632 488.071414 124.664647 492.42235 133.285001 C 496.763096 141.915545 498.933468 152.013383 498.933468 163.598895 Z M 498.933468 163.598895 " stroke="#ffffff" stroke-width="2.401529" stroke-opacity="1" stroke-miterlimit="4"/><g clip-path="url(#389bf10349)"><path stroke-linecap="butt" transform="matrix(0.383359, 0, 0, 0.383359, 8.178753, -1.99049)" fill="none" stroke-linejoin="miter" d="M 101.317075 502.003848 L 18.170394 502.003848 L 18.170394 357.638385 L 101.317075 357.638385 L 101.317075 382.714854 L 48.779785 382.714854 L 48.779785 414.414526 L 97.659028 414.414526 L 97.659028 439.490994 L 48.779785 439.490994 L 48.779785 476.723588 L 101.317075 476.723588 Z M 164.01334 503.97043 C 151.04205 503.97043 140.852506 498.936795 133.444707 488.869525 C 126.036909 478.792066 122.338104 464.84258 122.338104 447.000688 C 122.338104 428.893868 126.108236 414.791539 133.648498 404.683511 C 141.178571 394.585673 151.571907 389.531659 164.797935 389.531659 C 178.686284 389.531659 189.28341 394.932117 196.599502 405.722844 L 197.577699 405.722844 C 196.069646 397.489693 195.31562 390.153221 195.31562 383.703239 L 195.31562 348.355711 L 225.527618 348.355711 L 225.527618 502.003848 L 202.417732 502.003848 L 196.599502 487.677348 L 195.31562 487.677348 C 188.468246 498.539403 178.034153 503.97043 164.01334 503.97043 Z M 174.579897 479.984243 C 182.273003 479.984243 187.918011 477.742543 191.51492 473.269333 C 195.101639 468.785933 197.058032 461.184533 197.384097 450.454943 L 197.384097 447.194289 C 197.384097 435.343849 195.560169 426.855959 191.902123 421.720429 C 188.254266 416.584898 182.313761 414.017133 174.08061 414.017133 C 167.3657 414.017133 162.148653 416.870206 158.42947 422.555971 C 154.710286 428.251927 152.855789 436.536026 152.855789 447.39808 C 152.855789 458.260134 154.730665 466.40158 158.480418 471.832607 C 162.23017 477.263634 167.60006 479.984243 174.579897 479.984243 Z M 255.739617 363.069412 C 255.739617 353.256881 261.201213 348.355711 272.124404 348.355711 C 283.057785 348.355711 288.519381 353.256881 288.519381 363.069412 C 288.519381 367.736224 287.153982 371.373891 284.423184 373.972225 C 281.692386 376.580748 277.596189 377.87482 272.124404 377.87482 C 261.201213 377.87482 255.739617 372.943081 255.739617 363.069412 Z M 287.133603 502.003848 L 257.0235 502.003848 L 257.0235 391.600136 L 287.133603 391.600136 Z M 365.236459 479.984243 C 370.504453 479.984243 376.83216 478.832824 384.199201 476.519797 L 384.199201 498.936795 C 376.699696 502.299344 367.478159 503.97043 356.554967 503.97043 C 344.500737 503.97043 335.737729 500.933945 330.235375 494.840598 C 324.74321 488.747251 321.992033 479.617419 321.992033 467.440914 L 321.992033 414.210735 L 307.573828 414.210735 L 307.573828 401.473804 L 324.162406 391.406535 L 332.854087 368.103047 L 352.112326 368.103047 L 352.112326 391.600136 L 383.017214 391.600136 L 383.017214 414.210735 L 352.112326 414.210735 L 352.112326 467.440914 C 352.112326 471.720522 353.314692 474.879281 355.709235 476.91719 C 358.113968 478.955099 361.293105 479.984243 365.236459 479.984243 Z M 405.23042 363.069412 C 405.23042 353.256881 410.692016 348.355711 421.615207 348.355711 C 432.548588 348.355711 438.010184 353.256881 438.010184 363.069412 C 438.010184 367.736224 436.644785 371.373891 433.913987 373.972225 C 431.183189 376.580748 427.086992 377.87482 421.615207 377.87482 C 410.692016 377.87482 405.23042 372.943081 405.23042 363.069412 Z M 436.624406 502.003848 L 406.514303 502.003848 L 406.514303 391.600136 L 436.624406 391.600136 Z M 570.127814 502.003848 L 540.007521 502.003848 L 540.007521 437.524412 C 540.007521 429.556188 538.601364 423.574926 535.768671 419.601004 C 532.935977 415.616892 528.422009 413.619741 522.236956 413.619741 C 513.810203 413.619741 507.727045 416.442245 503.967103 422.066873 C 500.217351 427.691502 498.342475 437.025124 498.342475 450.057551 L 498.342475 502.003848 L 468.222182 502.003848 L 468.222182 391.600136 L 491.230173 391.600136 L 495.275422 405.722844 L 496.956697 405.722844 C 500.319246 400.393713 504.9453 396.358653 510.834856 393.627855 C 516.724413 390.897058 523.418943 389.531659 530.928637 389.531659 C 543.767463 389.531659 553.508667 393.006293 560.15225 399.945373 C 566.806022 406.894642 570.127814 416.910964 570.127814 430.014718 Z M 697.211809 391.600136 L 697.211809 406.904831 L 679.930342 411.347473 C 683.089101 416.289402 684.66848 421.822324 684.66848 427.94624 C 684.66848 439.786491 680.531525 449.018218 672.277994 455.641421 C 664.014274 462.254436 652.540847 465.566037 637.857714 465.566037 L 632.426687 465.270541 L 627.984046 464.771253 C 624.896614 467.145417 623.347803 469.774319 623.347803 472.66815 C 623.347803 477.019085 628.870536 479.189458 639.936381 479.189458 L 658.695332 479.189458 C 670.8107 479.189458 680.042427 481.787792 686.390513 486.994649 C 692.748789 492.191316 695.927927 499.823285 695.927927 509.900744 C 695.927927 522.800707 690.537658 532.80684 679.777499 539.919142 C 669.01734 547.031443 653.559802 550.587594 633.415073 550.587594 C 618.008482 550.587594 606.249748 547.897555 598.118492 542.537854 C 589.987235 537.167965 585.921607 529.648081 585.921607 519.968014 C 585.921607 513.324431 587.990085 507.76094 592.137229 503.28773 C 596.284374 498.804331 602.377721 495.615003 610.407082 493.709559 C 607.31965 492.384918 604.619421 490.234924 602.316584 487.239198 C 600.003557 484.243472 598.852139 481.064334 598.852139 477.711974 C 598.852139 473.493503 600.074884 469.9883 602.510185 467.196365 C 604.945486 464.39424 608.471069 461.643063 613.076743 458.942834 C 607.278892 456.446395 602.693597 452.431715 599.300479 446.898792 C 595.907361 441.36587 594.215896 434.854751 594.215896 427.345057 C 594.215896 415.301016 598.128681 405.987773 605.964441 399.405327 C 613.8002 392.822881 624.98832 389.531659 639.538989 389.531659 C 642.63661 389.531659 646.304846 389.806776 650.553886 390.367201 C 654.792737 390.927626 657.513345 391.335208 658.695332 391.600136 Z M 611.986461 517.60404 C 611.986461 521.751184 613.983612 525.011838 617.967724 527.375813 C 621.941646 529.749976 627.525516 530.931964 634.698955 530.931964 C 645.499872 530.931964 653.957194 529.45448 660.08111 526.489322 C 666.205026 523.524165 669.261889 519.478916 669.261889 514.343386 C 669.261889 510.196241 667.44815 507.332979 663.830862 505.7536 C 660.213574 504.17422 654.619514 503.379436 647.048683 503.379436 L 631.438301 503.379436 C 625.915568 503.379436 621.289515 504.683698 617.570332 507.282031 C 613.851148 509.880365 611.986461 513.324431 611.986461 517.60404 Z M 622.950411 427.742449 C 622.950411 433.733901 624.31581 438.472039 627.046608 441.967053 C 629.777406 445.451877 633.944929 447.194289 639.538989 447.194289 C 645.204375 447.194289 649.35152 445.451877 651.980422 441.967053 C 654.619514 438.472039 655.933966 433.733901 655.933966 427.742449 C 655.933966 414.445094 650.47237 407.801511 639.538989 407.801511 C 628.483333 407.801511 622.950411 414.445094 622.950411 427.742449 Z M 622.950411 427.742449 " stroke="#ffffff" stroke-width="2.401529" stroke-opacity="1" stroke-miterlimit="4"/></g></svg>